<?xml version="1.0" encoding="utf-8"?>
<!-- Generator: Adobe Illustrator 21.0.0, SVG Export Plug-In . SVG Version: 6.00 Build 0)  -->
<svg version="1.1" id="Layer_1" xmlns="http://www.w3.org/2000/svg" xmlns:xlink="http://www.w3.org/1999/xlink" x="0px" y="0px"
	 viewBox="0 0 974 510" style="enable-background:new 0 0 974 510;" xml:space="preserve">
<style type="text/css">
	.st0{fill:#3E65AF;}
	.st1{fill:#EA4333;}
</style>
<g id="XMLID_66_">
	<g id="XMLID_71_">
		<path id="XMLID_124_" class="st0" d="M482.2,311.3c-0.8,0.9-1.5,1.6-2,1.9c-0.6,0.4-1.2,0.6-2,0.7c-0.9,0.1-1.9,0-2.8-0.3
			s-1.8-0.6-2.5-1.1c-1.6-0.7-1.8-2-0.6-4c1.7-3.2,3.6-6.5,5.5-9.8c2-3.4,3.8-6.8,5.4-10.4c0.7-1.2,1.3-1.9,1.9-2
			c0.6-0.1,1.4,0.1,2.2,0.8c0.9,0.7,1.8,1.4,2.6,2.2c0.8,0.8,1.5,1.8,2.2,2.9c0.6,0.9,0.8,1.8,0.7,2.6c-0.1,0.8-0.5,1.8-1.1,2.9
			c-0.6,1.1-1.3,2.2-2.1,3.5c-0.8,1.3-1.7,2.6-2.6,3.8c-0.9,1.2-1.8,2.4-2.6,3.4C483.5,309.8,482.8,310.7,482.2,311.3z"/>
	</g>
	<g id="XMLID_69_">
		<path id="XMLID_85_" class="st0" d="M168.5,332.7c1.9,2.4,3.2,5,3.8,7.8c0.6,2.8,1,5.9,1,9.4c-0.2,6.2-1,13-2.5,20.5
			c-1.4,7.5-3.5,15.1-6,22.7c-2.6,7.6-5.7,14.9-9.3,22c-3.6,7-7.7,13.1-12.3,18.1c-3.2,3.1-6.3,5.1-9.3,6c-3,0.9-6.4,1.1-10.2,0.5
			c-2.4-0.4-4.8-1-7.3-1.7c-2.5-0.7-4.7-2-6.6-3.7c-1.5-1.4-2.9-3.2-4.1-5.4c-1.2-2.2-2.1-4.7-2.6-7.5c-0.9-6.6-0.7-14.1,0.6-22.5
			c1.3-8.4,3.5-16.8,6.5-25.3c3-8.5,6.8-16.6,11.4-24.3c4.6-7.8,9.7-14.3,15.4-19.7c2.4-2.1,5.1-3.7,8.1-4.7c3-1,5.7-1.3,8.1-0.8
			c3.2,0.7,6.1,1.8,8.9,3.2C164.6,328.9,166.9,330.6,168.5,332.7z M152.6,344.5c-1.1-0.5-2.6,0.3-4.6,2.3s-4,4.8-6.1,8.2
			c-2.1,3.4-4.3,7.3-6.5,11.7c-2.2,4.4-4.1,8.6-5.7,12.7c-1.7,4.2-3.2,8.6-4.5,13.3c-1.3,4.7-2.2,9-2.8,13.1
			c-0.6,4-0.8,7.5-0.6,10.4c0.2,2.9,1,4.7,2.4,5.4c1.2,0.7,2.7,0.3,4.5-1.2c1.8-1.5,3.7-3.8,5.7-6.9c2-3.1,4.1-6.9,6.2-11.4
			c2.1-4.5,4-9.4,5.8-14.6c1.5-4.2,2.9-8.7,4.1-13.4c1.2-4.8,2.2-9.3,2.8-13.4c0.6-4.2,0.9-7.8,0.9-10.8
			C154.2,346.8,153.7,345,152.6,344.5z"/>
		<path id="XMLID_98_" class="st0" d="M235.7,344.4c-3.6,0.6-7.3,1.2-11.2,1.8c-3.9,0.6-8.1,1.3-12.5,2.1c-1.4,3.3-2.8,7-4.2,11.1
			c-1.4,4.1-3,8.5-4.8,13.1c1.9-0.3,3.7-0.5,5.5-0.7c1.8-0.2,3.7-0.3,5.7-0.4c3-0.3,4.9,1,5.8,4c0.5,1.8,0.8,3.6,1,5.3
			c0.1,1.7,0.3,3.5,0.4,5.2c0.2,2,0,3.4-0.7,4.2c-0.6,0.8-1.8,1.3-3.5,1.6c-3.7,0.8-7.5,1.7-11.3,2.7c-3.9,1-7.7,2-11.3,3.1
			c-2.6,7.2-5,14.1-7.2,20.8c-2.2,6.7-4.2,12.8-5.9,18.1c-0.5,1.5-1.3,2.4-2.5,2.8c-1.2,0.4-2.5,0.4-4,0.1c-1.4-0.4-2.9-0.9-4.3-1.7
			c-1.4-0.8-2.6-1.6-3.5-2.4c-1.4-1.2-2.1-2.5-2.1-3.9c0-0.6,0.1-1.4,0.2-2.4s0.3-2.2,0.5-3.6c0.7-2.7,1.8-6.4,3.2-11
			s3-9.9,4.8-15.7c1.7-5.8,3.6-11.8,5.6-18.2c2-6.4,3.9-12.6,5.6-18.8c1.7-6.2,3.3-12,4.6-17.4c1.3-5.4,2.3-10.1,2.9-14
			c2.7-0.9,5.6-1.7,8.8-2.5c3.2-0.7,6.5-1.4,10.1-1.9c3.5-0.5,7.1-1,10.8-1.4c3.6-0.4,7.2-0.7,10.7-0.9c1.7-0.1,2.9,0.2,3.7,0.8
			c0.7,0.6,1.5,2,2.3,4.1c1,3.5,1.4,6.9,1.3,10.3c-0.1,2.1-0.4,3.5-0.9,4.2C238.7,343.6,237.5,344.1,235.7,344.4z"/>
		<path id="XMLID_100_" class="st0" d="M250.5,331.8c2.7-0.9,5.6-1.8,8.8-2.7c3.2-0.9,6.5-1.7,9.9-2.5c3.4-0.8,7-1.5,10.6-2
			c3.6-0.5,7.2-0.9,10.7-1.1c3.2-0.2,5,1.5,5.5,5.1c0.5,1.9,0.8,3.6,0.8,5.1c0.1,1.5,0.1,3.1,0.2,4.9c-0.1,2.1-0.4,3.5-1,4.3
			c-0.5,0.7-1.7,1.3-3.5,1.6c-3.6,0.5-7.3,1-11.1,1.6c-3.8,0.6-8,1.3-12.5,2.1c-1.5,3.7-3,7.6-4.5,11.6c-1.5,4.1-3.1,8.4-4.9,12.8
			c2-0.4,3.9-0.7,5.7-0.8c1.8-0.2,3.8-0.3,5.7-0.4c1.8-0.1,3.1,0.1,4,0.7c0.9,0.5,1.5,1.7,1.9,3.4c0.5,1.8,0.8,3.5,1,5.2
			c0.2,1.7,0.2,3.4,0.2,5.2c0.2,2.1,0.1,3.5-0.4,4.2c-0.5,0.7-1.7,1.3-3.6,1.8c-4,1-8,2-12.1,2.9c-4.1,0.9-8.1,2-11.9,3.1
			c-1.1,2.9-2.1,5.7-3,8.4c-0.9,2.7-1.8,5.4-2.8,8c3.2-0.8,6.2-1.4,9-1.9c2.8-0.4,5.8-0.8,9-1.1c1.8-0.2,3.2,0,4.1,0.6
			c0.9,0.6,1.6,1.7,2,3.4c0.5,1.9,0.8,3.7,1,5.4c0.1,1.7,0.3,3.4,0.5,5.2c0,2-0.2,3.4-0.7,4.1c-0.4,0.7-1.6,1.4-3.4,1.9
			c-4.5,1.2-9,2.4-13.5,3.7c-4.5,1.3-8.9,2.3-13.1,3.1c-2.9,1-5,1.2-6.3,0.7c-1.3-0.5-2.3-1.2-3.1-1.9c-0.9-1.1-1.7-2.2-2.5-3.4
			c-0.8-1.1-1.6-2.6-2.4-4.4c-0.7-1.4-1.2-3-1.4-4.9c-0.2-1.9,0-4.1,0.7-6.7L250.5,331.8z"/>
		<path id="XMLID_102_" class="st0" d="M307.1,403.8c-2,5.8-3.9,11.4-5.7,16.8c-1.8,5.4-3.6,10.8-5.4,16.2c-0.5,1.4-1.1,2.3-1.9,2.8
			c-0.7,0.5-1.8,0.5-3.2,0c-1.7-0.7-3.2-1.2-4.4-1.5c-1.2-0.3-2.4-0.9-3.5-1.9c-0.8-1.1-1.3-2.4-1.4-4c-0.2-1.5,0.1-3.6,0.8-6.2
			c0.7-2.8,1.8-6.9,3.2-12.2c1.4-5.4,3.1-11.3,4.9-17.8c1.8-6.5,3.8-13.2,5.9-20.2c2.1-6.9,4.1-13.3,6.1-19.2
			c2-5.9,3.9-10.8,5.6-14.9c1.7-4,3.2-6.4,4.4-7.1c4-2.2,8.1-4.3,12.4-6.3c4.3-2,8.4-3.5,12.3-4.4c3.9-0.9,7.5-1,10.8-0.2
			c3.3,0.7,6,2.8,8.1,6c1.6,2.9,3,6.1,4.2,9.6c1.2,3.5,1.9,7.8,2.1,12.8c0.1,2.6-0.1,5-0.4,7.3c-0.4,2.3-1.1,4.4-2.2,6.4
			c-2.9,6-7.2,11.5-13.1,16.7c-5.8,5.1-12.6,9.9-20.4,14.4c1.1,2.4,2.3,5,3.7,7.8c1.3,2.8,2.7,5.6,4.1,8.4c1.4,2.8,2.8,5.5,4.3,8
			s2.9,4.8,4.3,6.8c1.1,1.7,1.5,3,1.2,4c-0.3,1-1,2-2.2,3.1c-1.4,1.4-2.5,2.2-3.4,2.5c-0.8,0.2-1.9,0.4-3.2,0.5
			c-1.5,0.6-3.1,0.8-4.8,0.5c-1.7-0.3-3.5-1.3-5.5-3.2c-1.2-1.6-2.6-3.6-4.1-6c-1.5-2.4-3.1-5-4.7-7.8c-1.6-2.8-3.2-5.7-4.7-8.7
			C309.7,409.8,308.3,406.8,307.1,403.8z M327,350.6c-1.7,4.2-3.5,8.7-5.3,13.7c-1.8,4.9-3.9,10.2-6,15.9c4.6-2,8.8-4.4,12.5-7.3
			c3.8-2.9,7-5.8,9.6-8.7c2.6-2.9,4.7-5.6,6-8.2c1.4-2.6,2-4.6,1.9-6c-0.5-2.3-2.4-3.4-5.8-3.4c-1.7,0-3.6,0.3-5.8,0.9
			C332,348.1,329.6,349.2,327,350.6z"/>
		<path id="XMLID_105_" class="st0" d="M432.3,342.9c-2.4,0.3-5,0.6-7.8,1c-2.8,0.4-5.7,0.7-8.7,1.1c-2.4,7.1-4.9,14.5-7.6,22.3
			c-2.7,7.8-5.4,15.7-8.1,23.7c-2.7,8-5.3,16-7.8,23.8c-2.5,7.9-4.9,15.3-7.1,22.4c-0.3,1.4-0.7,2.3-1.3,2.8
			c-0.6,0.4-1.3,0.6-2.2,0.5c-0.8-0.1-1.8-0.4-2.8-0.9c-1-0.5-2.2-1-3.5-1.6c-2.6-1.1-4.5-2.5-5.8-4.3c-1.3-1.8-1.3-4.6,0-8.4
			c1.1-4.6,2.6-10.1,4.4-16.6c1.8-6.5,3.8-13.2,6-20.2c2.1-7,4.4-13.9,6.6-20.9c2.3-7,4.4-13.3,6.4-19c-1.8,0.4-3.5,0.7-5.2,1
			c-1.7,0.3-3.1,0.6-4.3,1c-1.6,0.5-2.8,0.6-3.7,0.2c-0.8-0.3-1.7-1.4-2.5-3.1c-0.9-1.7-1.6-3.8-2.1-6.4c-0.5-2.6-0.9-4.7-1.2-6.4
			c-0.3-1.8-0.2-3,0.3-3.6c0.5-0.6,1.3-1.1,2.5-1.5c3.6-0.9,7.6-1.7,12-2.5c4.4-0.8,9-1.5,13.6-2.1c4.6-0.6,9.1-1.1,13.4-1.5
			c4.3-0.4,8.2-0.7,11.7-0.9c1.7,0,2.9,0.2,3.7,0.7c0.7,0.4,1.4,1.2,1.9,2.2c0.9,1.8,1.6,3.7,2,5.8s0.8,4.1,1,6.1
			c0,1.9-0.2,3.2-0.6,3.8C435.1,342.3,434.1,342.7,432.3,342.9z"/>
		<path id="XMLID_107_" class="st0" d="M490.5,332.7c1.9,2.4,3.2,5,3.8,7.8c0.6,2.8,1,5.9,1,9.4c-0.2,6.2-1,13-2.5,20.5
			c-1.4,7.5-3.5,15.1-6,22.7c-2.6,7.6-5.7,14.9-9.3,22c-3.6,7-7.7,13.1-12.3,18.1c-3.2,3.1-6.3,5.1-9.3,6c-3,0.9-6.4,1.1-10.2,0.5
			c-2.4-0.4-4.8-1-7.3-1.7c-2.5-0.7-4.7-2-6.6-3.7c-1.5-1.4-2.9-3.2-4.1-5.4c-1.2-2.2-2.1-4.7-2.6-7.5c-0.9-6.6-0.7-14.1,0.6-22.5
			c1.3-8.4,3.5-16.8,6.5-25.3c3-8.5,6.8-16.6,11.4-24.3c4.6-7.8,9.7-14.3,15.4-19.7c2.4-2.1,5.1-3.7,8.1-4.7c3-1,5.7-1.3,8.1-0.8
			c3.2,0.7,6.1,1.8,8.9,3.2C486.6,328.9,488.8,330.6,490.5,332.7z M474.5,344.5c-1.1-0.5-2.6,0.3-4.6,2.3c-1.9,2-4,4.8-6.1,8.2
			c-2.1,3.4-4.3,7.3-6.5,11.7c-2.2,4.4-4.1,8.6-5.7,12.7c-1.7,4.2-3.2,8.6-4.5,13.3c-1.3,4.7-2.2,9-2.8,13.1
			c-0.6,4-0.8,7.5-0.6,10.4c0.2,2.9,1,4.7,2.4,5.4c1.2,0.7,2.7,0.3,4.5-1.2c1.8-1.5,3.7-3.8,5.7-6.9c2-3.1,4.1-6.9,6.2-11.4
			c2.1-4.5,4-9.4,5.8-14.6c1.5-4.2,2.9-8.7,4.1-13.4c1.2-4.8,2.2-9.3,2.8-13.4c0.6-4.2,0.9-7.8,0.9-10.8
			C476.2,346.8,475.6,345,474.5,344.5z"/>
		<path id="XMLID_110_" class="st0" d="M513.9,332.4c2.6-1.7,5.5-3.2,8.7-4.6c3.2-1.4,6.6-2.4,10.1-3.1c3.5-0.7,7-0.9,10.5-0.7
			c3.5,0.3,6.7,1.2,9.8,2.8c3,1.6,5.7,4,8.1,7.2c2.3,3.2,4.1,7.4,5.3,12.7c1.1,4.4,1.4,9.4,1,15c-0.4,5.6-1.5,11.5-3.2,17.5
			c-1.7,6.1-4.2,12.2-7.4,18.3c-3.2,6.1-7,11.9-11.6,17.4c-4.5,5.5-9.7,10.4-15.5,14.9c-5.8,4.4-12.3,7.9-19.5,10.5
			c-3.8,2-7.3,1.5-10.5-1.3c-1.6-1.2-2.9-2.5-4-3.8c-1.1-1.3-2.3-3-3.7-5c-0.5-0.9-0.9-1.8-1.3-2.6c-0.3-0.8-0.6-1.8-0.7-2.9
			c-0.1-1.1-0.1-2.4,0.1-4c0.1-1.5,0.5-3.5,1-5.9L513.9,332.4z M509.3,417.3c5.6-3.2,10.5-6.9,14.9-11.2c4.3-4.3,8-8.7,11.1-13.3
			c3-4.6,5.5-9.2,7.4-13.7c1.9-4.6,3.2-8.8,4-12.5c1-4.9,1.2-8.9,0.6-11.9c-0.6-2.8-2.1-4.9-4.6-6.2c-2.4-1.3-5.7-1.2-9.9,0.5
			c-4.2,10.9-8.2,22-11.9,33.3C517,393.5,513.2,405.2,509.3,417.3z"/>
		<path id="XMLID_113_" class="st0" d="M587.9,403.8c-2,5.8-3.9,11.4-5.7,16.8c-1.8,5.4-3.6,10.8-5.4,16.2c-0.5,1.4-1.1,2.3-1.9,2.8
			c-0.7,0.5-1.8,0.5-3.2,0c-1.7-0.7-3.2-1.2-4.4-1.5c-1.2-0.3-2.4-0.9-3.5-1.9c-0.8-1.1-1.3-2.4-1.4-4c-0.2-1.5,0.1-3.6,0.8-6.2
			c0.7-2.8,1.8-6.9,3.2-12.2c1.4-5.4,3.1-11.3,4.9-17.8c1.8-6.5,3.8-13.2,5.9-20.2c2.1-6.9,4.1-13.3,6.1-19.2
			c2-5.9,3.9-10.8,5.6-14.9c1.7-4,3.2-6.4,4.4-7.1c4-2.2,8.1-4.3,12.4-6.3c4.3-2,8.4-3.5,12.3-4.4c3.9-0.9,7.5-1,10.8-0.2
			c3.3,0.7,6,2.8,8.1,6c1.6,2.9,3,6.1,4.2,9.6c1.2,3.5,1.9,7.8,2.1,12.8c0.1,2.6-0.1,5-0.4,7.3c-0.4,2.3-1.1,4.4-2.2,6.4
			c-2.9,6-7.2,11.5-13.1,16.7c-5.8,5.1-12.6,9.9-20.4,14.4c1.1,2.4,2.3,5,3.7,7.8c1.3,2.8,2.7,5.6,4.1,8.4c1.4,2.8,2.8,5.5,4.3,8
			c1.4,2.5,2.9,4.8,4.3,6.8c1.1,1.7,1.5,3,1.2,4c-0.3,1-1,2-2.2,3.1c-1.4,1.4-2.5,2.2-3.4,2.5s-1.9,0.4-3.2,0.5
			c-1.5,0.6-3.1,0.8-4.8,0.5c-1.7-0.3-3.5-1.3-5.5-3.2c-1.2-1.6-2.6-3.6-4.1-6c-1.5-2.4-3.1-5-4.7-7.8c-1.6-2.8-3.2-5.7-4.7-8.7
			C590.4,409.8,589.1,406.8,587.9,403.8z M607.7,350.6c-1.7,4.2-3.5,8.7-5.3,13.7c-1.8,4.9-3.9,10.2-6,15.9c4.6-2,8.8-4.4,12.5-7.3
			c3.8-2.9,7-5.8,9.6-8.7c2.6-2.9,4.7-5.6,6-8.2c1.4-2.6,2-4.6,1.9-6c-0.5-2.3-2.4-3.4-5.8-3.4c-1.7,0-3.6,0.3-5.8,0.9
			C612.7,348.1,610.3,349.2,607.7,350.6z"/>
		<path id="XMLID_116_" class="st0" d="M705.1,332.7c1.9,2.4,3.2,5,3.8,7.8c0.6,2.8,1,5.9,1,9.4c-0.2,6.2-1,13-2.5,20.5
			c-1.4,7.5-3.5,15.1-6,22.7c-2.6,7.6-5.7,14.9-9.3,22c-3.6,7-7.7,13.1-12.3,18.1c-3.2,3.1-6.3,5.1-9.3,6c-3,0.9-6.4,1.1-10.2,0.5
			c-2.4-0.4-4.8-1-7.3-1.7c-2.5-0.7-4.7-2-6.6-3.7c-1.5-1.4-2.9-3.2-4.1-5.4c-1.2-2.2-2.1-4.7-2.6-7.5c-0.9-6.6-0.7-14.1,0.6-22.5
			c1.3-8.4,3.5-16.8,6.5-25.3c3-8.5,6.8-16.6,11.4-24.3c4.6-7.8,9.7-14.3,15.4-19.7c2.4-2.1,5.1-3.7,8.1-4.7c3-1,5.7-1.3,8.1-0.8
			c3.2,0.7,6.1,1.8,8.9,3.2C701.2,328.9,703.4,330.6,705.1,332.7z M689.1,344.5c-1.1-0.5-2.6,0.3-4.6,2.3c-1.9,2-4,4.8-6.1,8.2
			c-2.1,3.4-4.3,7.3-6.5,11.7c-2.2,4.4-4.1,8.6-5.7,12.7c-1.7,4.2-3.2,8.6-4.5,13.3c-1.3,4.7-2.2,9-2.8,13.1
			c-0.6,4-0.8,7.5-0.6,10.4c0.2,2.9,1,4.7,2.4,5.4c1.2,0.7,2.7,0.3,4.5-1.2c1.8-1.5,3.7-3.8,5.7-6.9c2-3.1,4.1-6.9,6.2-11.4
			c2.1-4.5,4-9.4,5.8-14.6c1.5-4.2,2.9-8.7,4.1-13.4c1.2-4.8,2.2-9.3,2.8-13.4c0.6-4.2,0.9-7.8,0.9-10.8
			C690.8,346.8,690.2,345,689.1,344.5z"/>
		<path id="XMLID_119_" class="st0" d="M737.5,369.6c-2.1,6-4.2,12-6.2,18.2c-2,6.2-4,12.2-5.8,18.1c-1.8,5.9-3.6,11.5-5.2,16.8
			c-1.6,5.3-3,10-4.2,14.2c-0.6,1.5-1.2,2.5-1.9,3.1c-0.7,0.5-1.8,0.6-3.3,0.1c-1.4-0.5-2.7-1-4-1.6c-1.3-0.6-2.5-1.4-3.6-2.4
			c-1.4-1.2-2.2-2.5-2.5-3.9c-0.2-1.4,0-3.4,0.7-6c0.8-3.7,1.9-8.1,3.2-13.3c1.3-5.2,2.9-10.7,4.6-16.6c1.7-5.9,3.5-11.9,5.5-18.2
			c1.9-6.3,3.9-12.3,5.7-18.2c1.9-5.9,3.7-11.4,5.5-16.5c1.7-5.1,3.3-9.5,4.7-13.2c1.1-2.6,2.2-4.2,3.2-4.9c1-0.7,2.6-0.8,4.6-0.4
			c3,0.6,5.5,1.3,7.5,2.1c2,0.8,4.1,1.7,6,2.8c2.5,1.4,3.9,3,4.3,4.9s0.4,4.3,0.2,7.4c-0.2,1.4-0.4,2.8-0.4,4.2
			c-0.1,1.4-0.2,2.9-0.3,4.6L755,361l-0.9,10.8l-0.6,10.5c1.5-3.1,3.2-6.5,5.1-10.2c1.9-3.7,3.9-7.4,6-11.2
			c2.1-3.8,4.2-7.5,6.3-11.3c2.1-3.7,4.1-7.2,6-10.4c1.9-3.6,3.5-6.5,4.9-8.8c1.3-2.3,2.6-4,3.8-5.2c1.2-1.2,2.5-1.9,3.8-2
			c1.3-0.2,2.9,0.2,4.7,1c2.3,0.8,4.7,1.8,7.2,2.9c2.5,1.1,4.9,2.5,7.2,4.1c1.6,1.1,2.5,2.4,2.8,3.8c0.3,1.4-0.1,3.5-1.2,6
			c-1.4,3.9-3,8.4-4.8,13.7c-1.8,5.2-3.7,10.8-5.6,16.7c-1.9,5.9-3.9,11.9-6,18.1c-2,6.2-4,12.1-5.7,17.9c-1.8,5.8-3.5,11.1-5,16.1
			c-1.5,5-2.8,9.2-3.8,12.7c-0.7,1.5-1.4,2.6-2.1,3.4c-0.7,0.8-1.9,0.9-3.6,0.3c-1.4-0.5-2.8-1-4.3-1.6c-1.5-0.5-2.8-1.3-3.9-2.3
			c-1.4-1.1-2.2-2.4-2.5-3.9c-0.3-1.5,0-3.5,0.8-6c0.7-2.9,1.7-6.6,2.9-11c1.2-4.5,2.7-9.4,4.3-14.6c1.6-5.3,3.3-10.7,5.1-16.4
			c1.8-5.6,3.6-11.1,5.4-16.4c-2.5,4.5-5.2,9.5-8.2,15c-3,5.5-5.9,11-8.7,16.4c-2.8,5.4-5.5,10.6-8.1,15.5
			c-2.5,4.9-4.6,9.1-6.2,12.5c-1,2.1-1.8,3.4-2.4,4c-0.6,0.6-1.7,0.6-3.4,0.2c-2.4-0.7-4.5-1.6-6.4-2.7c-1.3-0.8-2.2-1.8-2.6-3
			c-0.4-1.2-0.7-3.5-0.7-6.9c0.1-6.9,0.4-14.6,0.9-23.1C735.9,387,736.6,378.4,737.5,369.6z"/>
		<path id="XMLID_121_" class="st0" d="M866.2,332.7c1.9,2.4,3.2,5,3.8,7.8c0.6,2.8,1,5.9,1,9.4c-0.2,6.2-1,13-2.5,20.5
			c-1.4,7.5-3.5,15.1-6,22.7c-2.6,7.6-5.7,14.9-9.3,22c-3.6,7-7.7,13.1-12.3,18.1c-3.2,3.1-6.3,5.1-9.3,6c-3,0.9-6.4,1.1-10.2,0.5
			c-2.4-0.4-4.8-1-7.3-1.7c-2.5-0.7-4.7-2-6.6-3.7c-1.5-1.4-2.9-3.2-4.1-5.4c-1.2-2.2-2.1-4.7-2.6-7.5c-0.9-6.6-0.7-14.1,0.6-22.5
			c1.3-8.4,3.5-16.8,6.5-25.3c3-8.5,6.8-16.6,11.4-24.3c4.6-7.8,9.7-14.3,15.4-19.7c2.4-2.1,5.1-3.7,8.1-4.7c3-1,5.7-1.3,8.1-0.8
			c3.2,0.7,6.1,1.8,8.9,3.2C862.3,328.9,864.5,330.6,866.2,332.7z M850.2,344.5c-1.1-0.5-2.6,0.3-4.6,2.3c-1.9,2-4,4.8-6.1,8.2
			c-2.1,3.4-4.3,7.3-6.5,11.7c-2.2,4.4-4.1,8.6-5.7,12.7c-1.7,4.2-3.2,8.6-4.5,13.3c-1.3,4.7-2.2,9-2.8,13.1
			c-0.6,4-0.8,7.5-0.6,10.4c0.2,2.9,1,4.7,2.4,5.4c1.2,0.7,2.7,0.3,4.5-1.2c1.8-1.5,3.7-3.8,5.7-6.9c2-3.1,4.1-6.9,6.2-11.4
			c2.1-4.5,4-9.4,5.8-14.6c1.5-4.2,2.9-8.7,4.1-13.4c1.2-4.8,2.2-9.3,2.8-13.4c0.6-4.2,0.9-7.8,0.9-10.8
			C851.9,346.8,851.3,345,850.2,344.5z"/>
	</g>
	<g id="XMLID_68_">
		<path id="XMLID_72_" class="st0" d="M861.2,463C861.2,463,861.2,463,861.2,463c-317.5-5.9-750.8-0.1-755.2,0
			c-1.8,0.1-3.4-1.5-3.4-3.3c0-1.8,1.5-3.4,3.3-3.4c4.3-0.1,437.8-5.9,755.3,0c1.8,0,3.3,1.6,3.3,3.4C864.5,461.5,863,463,861.2,463
			z"/>
	</g>
</g>
<g id="XMLID_1_">
	<path id="XMLID_28_" class="st1" d="M493.3,58.5l10.8-11.9c0.5-0.6,1.4-0.6,1.9-0.1c0.2,0.2,0.4,0.5,0.4,0.7l3.7,17.2l-1.8-1
		l16.7-5.4c0.7-0.2,1.5,0.2,1.8,0.9c0.1,0.3,0.1,0.6,0,0.9l-5.3,16.7l-1.1-1.9l17.2,3.7c0.8,0.2,1.3,1,1.1,1.8
		c-0.1,0.3-0.2,0.6-0.5,0.8l-13,11.8v-2.2l13,11.8c0.6,0.6,0.7,1.5,0.1,2.2c-0.2,0.2-0.5,0.4-0.8,0.5l-17.2,3.7l1.2-2l5.4,16.7
		c0.3,0.8-0.2,1.7-1,2c-0.3,0.1-0.7,0.1-1,0l-16.7-5.3l2.1-1.2l-3.7,17.2c-0.2,0.9-1.1,1.5-2,1.3c-0.3-0.1-0.7-0.3-0.9-0.5l-11.8-13
		h2.5l-11.8,13c-0.6,0.7-1.6,0.7-2.3,0.1c-0.3-0.2-0.4-0.6-0.5-0.9l-3.7-17.2l2.1,1.2l-16.7,5.3c-0.8,0.3-1.7-0.2-2-1
		c-0.1-0.3-0.1-0.7,0-1l5.4-16.7l1.2,2l-17.2-3.7c-0.8-0.2-1.4-1-1.2-1.8c0.1-0.3,0.2-0.6,0.5-0.8l13-11.8v2.2l-13-11.8
		c-0.6-0.5-0.7-1.5-0.1-2.1c0.2-0.2,0.5-0.4,0.8-0.5l17.2-3.7l-1.1,1.9l-5.3-16.7c-0.2-0.7,0.2-1.5,0.9-1.8c0.3-0.1,0.6-0.1,0.9,0
		l16.7,5.4l-1.8,1l3.7-17.2c0.2-0.7,0.9-1.2,1.6-1c0.3,0.1,0.5,0.2,0.7,0.4L493.3,58.5z M492.4,61.4l-11.8-13l2.3-0.6l-3.7,17.2
		c-0.2,0.8-0.9,1.2-1.7,1.1l-0.1,0l-16.7-5.3l1.8-1.8l5.4,16.7c0.2,0.8-0.2,1.6-0.9,1.8l-0.1,0l-17.2,3.7l0.7-2.5l13,11.8
		c0.6,0.6,0.7,1.5,0.1,2.1l-0.1,0.1l-13,11.8l-0.7-2.6l17.2,3.7c0.8,0.2,1.4,1,1.2,1.9l0,0.2l-5.3,16.7l-2-2l16.7-5.4
		c0.8-0.3,1.8,0.2,2,1l0,0.2l3.7,17.2l-2.8-0.8l11.8-13c0.6-0.7,1.7-0.7,2.4-0.1l0.1,0.1l11.8,13l-2.8,0.8l3.7-17.2
		c0.2-0.9,1-1.4,1.9-1.2l0.2,0l16.7,5.4l-2,2l-5.3-16.7c-0.3-0.8,0.2-1.7,1-2l0.2,0l17.2-3.7l-0.7,2.6l-13-11.8
		c-0.6-0.6-0.7-1.5-0.1-2.1l0.1-0.1l13-11.8l0.7,2.5l-17.2-3.7c-0.8-0.2-1.3-0.9-1.1-1.7l0-0.1l5.4-16.7l1.8,1.8l-16.7,5.3
		c-0.7,0.2-1.5-0.2-1.8-0.9l0-0.1l-3.7-17.2l2.3,0.6l-11.8,13C493.8,61.9,493,61.9,492.4,61.4C492.4,61.4,492.4,61.4,492.4,61.4z"/>
	<path id="XMLID_32_" class="st1" d="M390.8,208.8c0,0-3,0.5-8.3,1.4c-2.7,0.4-5.9,1-9.6,1.6c-1.8,0.3-3.8,0.6-5.9,1
		c-1.1,0.2-2,0.4-3.3,0.5c-1.3,0.2-2.8-0.1-4-0.6c-1.3-0.5-2.5-1.5-3.3-2.6c-0.4-0.6-0.8-1.2-1.1-1.9c-0.3-0.7-0.4-1.5-0.5-2.1
		c-0.4-2.4-0.8-5-1.3-7.6c-0.9-5.2-1.8-10.7-2.7-16.4c-0.9-5.7-1.9-11.5-2.9-17.5c-0.2-1.5-0.5-3-0.7-4.5c-0.2-1.5-0.6-2.9-0.6-4.8
		c0-3.9,3.1-7.4,7-8c6.1-0.9,12.1-1.9,18.1-2.8c3-0.5,6-0.9,9-1.4c3.7-0.4,7.3,1.9,8.6,5.3c0.6,1.8,0.6,3,0.9,4.5
		c0.2,1.4,0.4,2.8,0.7,4.1c0.4,2.7,0.9,5.4,1.3,8c0.8,5.2,1.6,10.1,2.3,14.7c0.7,4.5,1.4,8.7,2,12.4c0.3,1.8,0.6,3.6,0.8,5.2
		c0.1,0.8,0.2,1.6,0.4,2.3c0.1,0.5,0.1,0.7,0.1,1.2c0,0.5,0,0.9-0.1,1.3c-0.5,3.3-2.7,5.1-4.2,5.9c-0.8,0.4-1.4,0.6-1.8,0.7
		C391,208.8,390.8,208.8,390.8,208.8z M390.4,206.2c0,0,0.1,0,0.4-0.1c0.3-0.1,0.7-0.2,1.2-0.5c1-0.5,2.4-1.8,2.7-3.9
		c0-0.3,0.1-0.5,0-0.8c0-0.2-0.1-0.7-0.1-0.9c-0.1-0.7-0.2-1.5-0.4-2.3c-0.3-1.6-0.6-3.3-0.9-5.2c-0.6-3.7-1.3-7.9-2.1-12.4
		c-0.8-4.5-1.6-9.5-2.4-14.7c-0.4-2.6-0.9-5.3-1.3-8c-0.2-1.4-0.5-2.7-0.7-4.1c-0.2-1.3-0.4-3-0.7-3.9c-0.8-2.1-3.1-3.6-5.3-3.3
		c-2.9,0.5-5.8,0.9-8.8,1.4c-6,1-12,2-18.1,2.9c-2.3,0.3-4.2,2.5-4.2,4.8c0,1.1,0.4,2.7,0.6,4.2c0.2,1.5,0.5,3,0.7,4.5
		c0.9,6,1.9,11.8,2.8,17.5c0.9,5.7,1.8,11.2,2.6,16.4c0.4,2.6,0.8,5.1,1.2,7.6c0.2,2.2,1.5,3.7,3.2,4.4c0.8,0.4,1.7,0.5,2.6,0.4
		c0.9-0.1,2.1-0.3,3.1-0.5c2.1-0.3,4-0.6,5.9-0.9c3.7-0.6,6.9-1.1,9.6-1.5C387.3,206.7,390.4,206.2,390.4,206.2z"/>
	<path id="XMLID_29_" class="st1" d="M459.8,194.9c0,0,0.3-0.1,0.7-0.3c0.5-0.2,1.2-0.6,2.2-0.9c2.1-0.8,5-1.8,8.9-2.6
		c3.9-0.9,8.6-1.7,14.1-2.3c5.5-0.6,11.6-1,18.4-0.9c6.8,0.2,14,0.7,21.7,1.1c3.8,0.2,7.7,0.3,11.7,0.3c2,0,4,0,6-0.1
		c1-0.1,2.1-0.1,3-0.2c1-0.2,2.1-0.2,3-0.4c1.8-0.4,3.6-1.1,4.9-2.2c1.3-1.1,2-2.7,1.9-4.3c-0.1-1.7-1-3.4-2.3-4.5
		c-0.6-0.6-1.4-0.9-2.2-1.1c-1.1-0.2-2.2-0.4-3.3-0.7c-8.6-2-17.3-4-26-5.5c-8.7-1.6-17.7-2.8-26.3-5c-4.3-1.1-8.6-2.5-12.6-4.5
		c-4-2-7.6-4.4-11.1-6.5c-7.1-4.3-14.2-8.1-21.3-10.8c-7-2.7-14.1-4.2-20.5-4c-6.5,0.2-12.4,1.5-17.6,3c-5.2,1.5-9.6,3.1-13.2,4.5
		c-3.6,1.4-6.5,2.5-8.4,3.3c-1.9,0.8-3,1.2-3,1.2c-0.7,0.3-1.5,0-1.8-0.7c-0.3-0.7,0-1.5,0.7-1.8c0,0,1-0.4,3-1.3
		c1.9-0.8,4.8-2,8.4-3.4c3.7-1.4,8.1-3.1,13.4-4.7c5.3-1.5,11.4-3,18.3-3.2c7-0.2,14.4,1.4,21.7,4.1c7.3,2.8,14.5,6.7,21.8,11
		c3.6,2.1,7.2,4.5,10.9,6.3c3.7,1.8,7.8,3.2,12,4.2c8.4,2.2,17.2,3.3,26.1,4.9c8.8,1.6,17.6,3.6,26.1,5.6c1.1,0.2,2.1,0.5,3.2,0.7
		c1.3,0.3,2.7,0.9,3.6,1.8c2,1.7,3.3,4.1,3.5,6.7c0.2,2.6-1,5.4-3,7c-2,1.6-4.2,2.4-6.5,2.9c-1.1,0.3-2.1,0.3-3.2,0.5
		c-1.2,0.1-2.1,0.1-3.2,0.2c-2.1,0.1-4.1,0.1-6.2,0.1c-4.1,0-8-0.2-11.9-0.4c-7.7-0.4-14.9-1-21.6-1.1c-13.3-0.1-24.4,1.2-31.9,2.8
		c-3.7,0.8-6.7,1.7-8.5,2.4c-0.9,0.3-1.7,0.7-2.2,0.9c-0.5,0.2-0.8,0.3-0.8,0.3c-0.7,0.3-1.5,0-1.8-0.7
		C458.8,195.9,459.1,195.2,459.8,194.9z"/>
	<path id="XMLID_31_" class="st1" d="M396.4,198.3c0,0,2.5,0.3,6.7,1c4.3,0.7,10.3,1.8,17.5,3.5c3.6,0.9,7.5,1.9,11.6,3.1
		c4.1,1.2,8.3,2.9,12.6,4.3c8.6,2.8,18.2,5,27.8,6.4c4.8,0.7,9.6,1.3,14.3,1.3l1.7-0.1l1.6-0.2c0.4-0.2,0.9-0.2,1.3-0.4
		c0.5-0.2,1.1-0.5,1.6-0.8c2-1,4.1-2.2,6.1-3.3c8-4.5,15.5-8.8,21.9-12.4c6.4-3.6,11.9-6.5,15.7-8.4c3.9-1.9,6.2-2.8,6.2-2.8
		c0.7-0.3,1.5,0.1,1.7,0.8c0.3,0.7-0.1,1.5-0.7,1.7c0,0-2.2,0.9-6,2.8c-3.8,1.9-9.1,4.9-15.5,8.5c-6.4,3.7-13.8,7.9-21.8,12.5
		c-2,1.1-4,2.3-6.2,3.4c-0.6,0.3-1.1,0.5-1.6,0.8c-0.6,0.3-1.4,0.5-2.1,0.7l-2,0.2l-1.9,0.1c-5,0.1-9.9-0.5-14.8-1.2
		c-9.8-1.5-19.4-3.7-28.3-6.7c-4.4-1.5-8.5-3.2-12.5-4.4c-4-1.3-7.8-2.2-11.4-3.1c-7.1-1.7-13.1-2.9-17.3-3.7
		c-4.2-0.8-6.6-1.1-6.6-1.1c-0.7-0.1-1.2-0.8-1.1-1.5C395,198.7,395.6,198.2,396.4,198.3z"/>
	<path id="XMLID_24_" class="st1" d="M557.5,179.5c0,0,5.4-3.5,13.6-8.8c4.1-2.6,8.9-5.6,13.9-9c1.3-0.8,2.5-1.7,3.7-2.6
		c1.2-0.9,2.4-1.9,3.1-2.9c0.3-0.5,0.5-0.9,0.5-1.2c0-0.2-0.1-0.3-0.1-0.6l-0.1-0.2l0-0.1l0,0l0,0c0-0.1,0.3,0.4,0.1,0.2l-0.4-0.5
		c-0.3-0.2-0.2-0.1-0.5-0.2c-0.3-0.1-0.5-0.2-0.9-0.3c-0.6-0.2-1.3-0.3-2.1-0.3c-2.9-0.2-6.1,0.2-9.1,0.9c-3,0.7-5.9,1.7-8.5,2.9
		c-1.3,0.6-2.6,1.3-3.9,2c-1.2,0.7-2.5,1.4-3.7,2.1c-2.4,1.4-4.6,2.8-6.6,4.1c-8.2,5.2-13.6,8.7-13.6,8.7c-0.6,0.4-1.4,0.2-1.9-0.4
		c-0.4-0.6-0.2-1.4,0.3-1.8c0,0,1.3-0.9,3.7-2.5c2.3-1.6,5.7-3.9,9.8-6.5c2.1-1.3,4.3-2.7,6.7-4.2c1.2-0.7,2.4-1.5,3.7-2.2
		c1.3-0.7,2.6-1.4,4-2.1c2.8-1.3,5.9-2.4,9.1-3.2c3.2-0.8,6.6-1.3,10.1-1.1c0.9,0.1,1.8,0.2,2.7,0.5c0.5,0.1,0.9,0.3,1.4,0.5
		c0.4,0.2,1.3,0.8,1.5,1.1l0.4,0.5c-0.1-0.2,0.2,0.3,0.2,0.2l0,0l0,0.1l0.1,0.2l0.2,0.4c0.2,0.5,0.4,1.1,0.4,1.8
		c0,1.3-0.5,2.4-1.1,3.2c-1.2,1.6-2.5,2.5-3.8,3.5c-1.3,1-2.6,1.8-3.9,2.7c-5.1,3.4-10,6.3-14.1,8.9c-8.3,5.1-13.8,8.5-13.8,8.5
		c-0.6,0.4-1.5,0.2-1.8-0.4C556.7,180.8,556.9,179.9,557.5,179.5z"/>
	<path id="XMLID_35_" class="st1" d="M586.9,150.4c0,0,1.1-0.8,2.6-2.2c0.7-0.7,1.7-1.7,1.9-2.5c0.1-0.4,0-0.7-0.3-1.1
		c-0.3-0.4-0.5-0.4-0.6-0.6c-0.3-0.2-0.6-0.4-1-0.5c-1.4-0.6-3.4-0.9-5.4-0.8c-2.1,0.1-4.3,0.4-6.5,1c-2.2,0.6-4.5,1.4-6.8,2.3
		c-1.1,0.5-2.3,1-3.4,1.5c-1.1,0.5-2.2,1.1-3.3,1.7c-4.4,2.4-8.8,5.1-12.9,7.6c-4.1,2.5-7.9,4.9-11.1,7c-6.5,4.1-10.9,6.8-10.9,6.8
		c-0.6,0.4-1.5,0.2-1.8-0.4c-0.4-0.6-0.2-1.4,0.4-1.8c0,0,4.2-2.9,10.7-7.1c3.2-2.1,7-4.5,11.1-7.1c4.1-2.6,8.4-5.3,13-7.9
		c2.2-1.2,4.7-2.4,7.1-3.4c2.4-1,4.8-1.8,7.3-2.4c2.4-0.6,4.8-1,7.2-1c2.4,0,4.7,0.2,6.7,1.2c0.5,0.2,1,0.5,1.5,0.9
		c0.5,0.4,1.1,1,1.3,1.3l0.2,0.3l0.1,0.2l0,0l0,0.1l0.1,0.1l0.1,0.2c0.1,0.3,0.2,0.6,0.3,0.9c0.1,0.7,0.1,1.3-0.1,1.9
		c-0.8,2.2-2.1,3-2.9,3.8c-1.8,1.5-2.9,2.2-2.9,2.2l-0.1,0.1c-0.6,0.4-1.4,0.2-1.9-0.4C586.2,151.6,586.4,150.8,586.9,150.4z"/>
	<path id="XMLID_36_" class="st1" d="M571.9,142c0,0,0-0.1,0-0.2c0,0,0-0.2,0-0.3c0-0.2-0.1-0.6-0.4-0.9c-0.5-0.5-0.5-0.3-0.8-0.5
		c-0.4-0.1-0.9-0.2-1.4-0.3c-1.1-0.1-2.5,0.1-4,0.3c-3,0.6-6.5,1.7-10,3.4c-1.8,0.8-3.6,1.8-5.4,2.8c-1.8,1-3.5,2.2-5.3,3.4
		c-7.2,4.6-14.5,9.2-19.9,12.7c-5.5,3.4-9.1,5.7-9.1,5.7c-0.6,0.4-1.5,0.2-1.8-0.4c-0.4-0.6-0.2-1.4,0.4-1.8l0,0c0,0,3.6-2.4,8.9-6
		c5.4-3.5,12.6-8.2,19.8-13c1.8-1.1,3.6-2.3,5.5-3.4c1.9-1.1,3.8-2,5.7-2.9c3.8-1.7,7.5-2.9,10.8-3.5c1.7-0.3,3.3-0.4,4.8-0.3
		c0.8,0.1,1.5,0.2,2.2,0.5c0.7,0.2,1.6,0.9,1.8,1.2c1,1.1,1.2,2.3,1.1,3.1c0,0.4-0.1,0.6-0.2,0.9c0,0.1-0.1,0.2-0.1,0.2
		c-0.2,0.7-1,1.1-1.7,0.9C572.1,143.4,571.7,142.7,571.9,142L571.9,142z"/>
</g>
</svg>
