<?xml version="1.0" encoding="utf-8"?>
<!-- Generator: Adobe Illustrator 21.0.0, SVG Export Plug-In . SVG Version: 6.00 Build 0)  -->
<svg version="1.1" id="Layer_1" xmlns="http://www.w3.org/2000/svg" xmlns:xlink="http://www.w3.org/1999/xlink" x="0px" y="0px"
	 viewBox="0 0 345 193" style="enable-background:new 0 0 345 193;" xml:space="preserve">
<style type="text/css">
	.st0{fill:#3E65AF;}
	.st1{fill:#EA4333;}
</style>
<g id="XMLID_66_">
	<g id="XMLID_71_">
		<path id="XMLID_124_" class="st0" d="M170.7,133.7c-0.4,0.4-0.7,0.7-0.9,0.9c-0.3,0.2-0.6,0.3-0.9,0.3c-0.4,0-0.8,0-1.3-0.1
			s-0.8-0.3-1.1-0.5c-0.7-0.3-0.8-0.9-0.3-1.8c0.8-1.4,1.6-2.9,2.5-4.4c0.9-1.5,1.7-3.1,2.4-4.7c0.3-0.5,0.6-0.8,0.9-0.9
			c0.3-0.1,0.6,0.1,1,0.4c0.4,0.3,0.8,0.6,1.2,1c0.4,0.4,0.7,0.8,1,1.3c0.3,0.4,0.4,0.8,0.3,1.2c0,0.4-0.2,0.8-0.5,1.3
			c-0.3,0.5-0.6,1-1,1.6c-0.4,0.6-0.8,1.1-1.2,1.7c-0.4,0.6-0.8,1.1-1.2,1.5C171.3,133,171,133.4,170.7,133.7z"/>
	</g>
	<g id="XMLID_69_">
		<path id="XMLID_85_" class="st0" d="M30.1,143.3c0.8,1.1,1.4,2.2,1.7,3.5c0.3,1.3,0.4,2.7,0.4,4.2c-0.1,2.8-0.5,5.8-1.1,9.2
			c-0.6,3.4-1.6,6.8-2.7,10.2c-1.2,3.4-2.6,6.7-4.2,9.8c-1.6,3.1-3.5,5.9-5.5,8.1c-1.4,1.4-2.8,2.3-4.2,2.7
			c-1.4,0.4-2.9,0.5-4.6,0.2c-1.1-0.2-2.2-0.4-3.3-0.8c-1.1-0.3-2.1-0.9-2.9-1.6c-0.7-0.6-1.3-1.4-1.8-2.4c-0.6-1-0.9-2.1-1.2-3.3
			c-0.4-2.9-0.3-6.3,0.3-10.1c0.6-3.8,1.6-7.6,2.9-11.4c1.4-3.8,3.1-7.4,5.1-10.9c2.1-3.5,4.4-6.4,6.9-8.8c1.1-0.9,2.3-1.6,3.6-2.1
			s2.5-0.6,3.6-0.4c1.4,0.3,2.8,0.8,4,1.4C28.3,141.5,29.3,142.3,30.1,143.3z M22.9,148.5c-0.5-0.2-1.2,0.1-2,1s-1.8,2.1-2.7,3.7
			c-1,1.5-1.9,3.3-2.9,5.3c-1,2-1.8,3.9-2.5,5.7c-0.8,1.9-1.4,3.9-2,6c-0.6,2.1-1,4.1-1.3,5.9c-0.3,1.8-0.4,3.4-0.3,4.7
			c0.1,1.3,0.4,2.1,1.1,2.4c0.5,0.3,1.2,0.1,2-0.5s1.7-1.7,2.6-3.1c0.9-1.4,1.8-3.1,2.8-5.1c0.9-2,1.8-4.2,2.6-6.6
			c0.7-1.9,1.3-3.9,1.8-6c0.6-2.1,1-4.2,1.3-6c0.3-1.9,0.4-3.5,0.4-4.8C23.7,149.6,23.4,148.8,22.9,148.5z"/>
		<path id="XMLID_98_" class="st0" d="M60.2,148.5c-1.6,0.3-3.3,0.5-5,0.8c-1.7,0.3-3.6,0.6-5.6,0.9c-0.6,1.5-1.3,3.1-1.9,5
			c-0.6,1.9-1.3,3.8-2.1,5.9c0.8-0.1,1.7-0.2,2.5-0.3c0.8-0.1,1.7-0.2,2.5-0.2c1.3-0.1,2.2,0.5,2.6,1.8c0.2,0.8,0.4,1.6,0.4,2.4
			c0.1,0.8,0.1,1.6,0.2,2.3c0.1,0.9,0,1.5-0.3,1.9c-0.3,0.4-0.8,0.6-1.6,0.7c-1.7,0.4-3.3,0.8-5.1,1.2s-3.4,0.9-5.1,1.4
			c-1.2,3.2-2.2,6.3-3.2,9.3s-1.9,5.7-2.6,8.1c-0.2,0.7-0.6,1.1-1.1,1.3s-1.1,0.2-1.8,0c-0.6-0.2-1.3-0.4-1.9-0.8
			c-0.6-0.4-1.2-0.7-1.6-1.1c-0.6-0.5-0.9-1.1-0.9-1.7c0-0.3,0-0.6,0.1-1.1s0.1-1,0.2-1.6c0.3-1.2,0.8-2.9,1.4-5s1.4-4.4,2.1-7
			c0.8-2.6,1.6-5.3,2.5-8.2c0.9-2.9,1.7-5.7,2.5-8.4c0.8-2.8,1.5-5.4,2.1-7.8c0.6-2.4,1-4.5,1.3-6.3c1.2-0.4,2.5-0.8,4-1.1
			c1.4-0.3,2.9-0.6,4.5-0.9c1.6-0.2,3.2-0.5,4.8-0.6c1.6-0.2,3.2-0.3,4.8-0.4c0.8,0,1.3,0.1,1.6,0.4c0.3,0.3,0.7,0.9,1,1.8
			c0.4,1.6,0.6,3.1,0.6,4.6c0,0.9-0.2,1.6-0.4,1.9S61,148.3,60.2,148.5z"/>
		<path id="XMLID_100_" class="st0" d="M66.8,142.9c1.2-0.4,2.5-0.8,4-1.2c1.4-0.4,2.9-0.8,4.5-1.1c1.5-0.4,3.1-0.7,4.8-0.9
			c1.6-0.2,3.2-0.4,4.8-0.5c1.4-0.1,2.3,0.7,2.5,2.3c0.2,0.8,0.3,1.6,0.4,2.3s0.1,1.4,0.1,2.2c0,0.9-0.2,1.6-0.4,1.9
			c-0.2,0.3-0.8,0.6-1.6,0.7c-1.6,0.2-3.3,0.5-5,0.7c-1.7,0.3-3.6,0.6-5.6,0.9c-0.7,1.7-1.3,3.4-2,5.2c-0.7,1.8-1.4,3.8-2.2,5.8
			c0.9-0.2,1.8-0.3,2.6-0.4c0.8-0.1,1.7-0.1,2.6-0.2c0.8,0,1.4,0.1,1.8,0.3c0.4,0.2,0.7,0.7,0.9,1.5c0.2,0.8,0.4,1.6,0.4,2.3
			c0.1,0.8,0.1,1.5,0.1,2.3c0.1,0.9,0,1.6-0.2,1.9c-0.2,0.3-0.8,0.6-1.6,0.8c-1.8,0.4-3.6,0.9-5.4,1.3c-1.8,0.4-3.6,0.9-5.4,1.4
			c-0.5,1.3-0.9,2.6-1.3,3.8c-0.4,1.2-0.8,2.4-1.3,3.6c1.4-0.4,2.8-0.6,4.1-0.8c1.3-0.2,2.6-0.4,4.1-0.5c0.8-0.1,1.4,0,1.8,0.3
			c0.4,0.3,0.7,0.8,0.9,1.5c0.2,0.8,0.4,1.7,0.4,2.4c0.1,0.8,0.1,1.5,0.2,2.3c0,0.9-0.1,1.5-0.3,1.8c-0.2,0.3-0.7,0.6-1.5,0.8
			c-2,0.5-4,1.1-6.1,1.7s-4,1-5.9,1.4c-1.3,0.4-2.2,0.5-2.8,0.3c-0.6-0.2-1-0.5-1.4-0.8c-0.4-0.5-0.8-1-1.1-1.5
			c-0.4-0.5-0.7-1.2-1.1-2c-0.3-0.6-0.5-1.4-0.6-2.2c-0.1-0.8,0-1.9,0.3-3L66.8,142.9z"/>
		<path id="XMLID_102_" class="st0" d="M92.2,175.1c-0.9,2.6-1.7,5.1-2.5,7.5c-0.8,2.4-1.6,4.9-2.4,7.3c-0.2,0.6-0.5,1-0.8,1.3
			c-0.3,0.2-0.8,0.2-1.4,0c-0.8-0.3-1.4-0.5-2-0.7c-0.6-0.1-1.1-0.4-1.6-0.9c-0.4-0.5-0.6-1.1-0.6-1.8c-0.1-0.7,0.1-1.6,0.4-2.8
			c0.3-1.2,0.8-3.1,1.4-5.5c0.6-2.4,1.4-5.1,2.2-8c0.8-2.9,1.7-5.9,2.6-9c0.9-3.1,1.9-6,2.7-8.6c0.9-2.6,1.7-4.9,2.5-6.7
			c0.8-1.8,1.4-2.9,2-3.2c1.8-1,3.6-1.9,5.6-2.8c1.9-0.9,3.8-1.6,5.5-2c1.8-0.4,3.4-0.4,4.9-0.1c1.5,0.3,2.7,1.2,3.6,2.7
			c0.7,1.3,1.3,2.7,1.9,4.3c0.5,1.6,0.8,3.5,0.9,5.8c0,1.2,0,2.3-0.2,3.3c-0.2,1-0.5,2-1,2.9c-1.3,2.7-3.2,5.2-5.9,7.5
			c-2.6,2.3-5.7,4.5-9.1,6.5c0.5,1.1,1,2.2,1.6,3.5c0.6,1.2,1.2,2.5,1.8,3.8c0.6,1.2,1.3,2.4,1.9,3.6s1.3,2.2,1.9,3
			c0.5,0.8,0.7,1.4,0.5,1.8c-0.1,0.4-0.5,0.9-1,1.4c-0.6,0.6-1.1,1-1.5,1.1s-0.9,0.2-1.4,0.2c-0.7,0.3-1.4,0.3-2.1,0.2
			c-0.8-0.1-1.6-0.6-2.5-1.4c-0.5-0.7-1.1-1.6-1.8-2.7c-0.7-1.1-1.4-2.2-2.1-3.5c-0.7-1.2-1.4-2.6-2.1-3.9
			C93.4,177.8,92.8,176.5,92.2,175.1z M101.1,151.3c-0.8,1.9-1.6,3.9-2.4,6.1c-0.8,2.2-1.7,4.6-2.7,7.1c2.1-0.9,3.9-2,5.6-3.3
			c1.7-1.3,3.1-2.6,4.3-3.9c1.2-1.3,2.1-2.5,2.7-3.7c0.6-1.2,0.9-2.1,0.9-2.7c-0.2-1-1.1-1.5-2.6-1.5c-0.8,0-1.6,0.1-2.6,0.4
			C103.4,150.2,102.3,150.6,101.1,151.3z"/>
		<path id="XMLID_105_" class="st0" d="M148.3,147.8c-1.1,0.1-2.2,0.3-3.5,0.4c-1.2,0.2-2.5,0.3-3.9,0.5c-1.1,3.2-2.2,6.5-3.4,10
			c-1.2,3.5-2.4,7.1-3.6,10.6c-1.2,3.6-2.4,7.2-3.5,10.7c-1.1,3.5-2.2,6.9-3.2,10c-0.1,0.6-0.3,1-0.6,1.2c-0.3,0.2-0.6,0.3-1,0.2
			c-0.4,0-0.8-0.2-1.3-0.4c-0.5-0.2-1-0.5-1.6-0.7c-1.2-0.5-2-1.1-2.6-1.9c-0.6-0.8-0.6-2.1,0-3.8c0.5-2.1,1.1-4.5,2-7.4
			c0.8-2.9,1.7-5.9,2.7-9c1-3.1,2-6.2,3-9.4c1-3.1,2-6,2.9-8.5c-0.8,0.2-1.6,0.3-2.3,0.5c-0.8,0.1-1.4,0.3-1.9,0.5
			c-0.7,0.2-1.3,0.3-1.6,0.1c-0.4-0.2-0.7-0.6-1.1-1.4c-0.4-0.8-0.7-1.7-0.9-2.9c-0.2-1.2-0.4-2.1-0.5-2.9c-0.1-0.8-0.1-1.3,0.1-1.6
			c0.2-0.3,0.6-0.5,1.1-0.7c1.6-0.4,3.4-0.8,5.4-1.1c2-0.4,4-0.7,6.1-0.9c2.1-0.3,4.1-0.5,6-0.7c1.9-0.2,3.7-0.3,5.3-0.4
			c0.8,0,1.3,0.1,1.6,0.3c0.3,0.2,0.6,0.5,0.8,1c0.4,0.8,0.7,1.7,0.9,2.6s0.3,1.9,0.4,2.7c0,0.8-0.1,1.4-0.3,1.7
			C149.6,147.5,149.1,147.7,148.3,147.8z"/>
		<path id="XMLID_107_" class="st0" d="M174.5,143.3c0.8,1.1,1.4,2.2,1.7,3.5c0.3,1.3,0.4,2.7,0.4,4.2c-0.1,2.8-0.5,5.8-1.1,9.2
			c-0.6,3.4-1.6,6.8-2.7,10.2c-1.2,3.4-2.6,6.7-4.2,9.8c-1.6,3.1-3.5,5.9-5.5,8.1c-1.4,1.4-2.8,2.3-4.2,2.7
			c-1.4,0.4-2.9,0.5-4.6,0.2c-1.1-0.2-2.2-0.4-3.3-0.8c-1.1-0.3-2.1-0.9-2.9-1.6c-0.7-0.6-1.3-1.4-1.8-2.4c-0.6-1-0.9-2.1-1.2-3.3
			c-0.4-2.9-0.3-6.3,0.3-10.1c0.6-3.8,1.6-7.6,2.9-11.4c1.4-3.8,3.1-7.4,5.1-10.9c2.1-3.5,4.4-6.4,6.9-8.8c1.1-0.9,2.3-1.6,3.6-2.1
			s2.5-0.6,3.6-0.4c1.4,0.3,2.8,0.8,4,1.4C172.7,141.5,173.7,142.3,174.5,143.3z M167.3,148.5c-0.5-0.2-1.2,0.1-2,1
			c-0.9,0.9-1.8,2.1-2.7,3.7c-1,1.5-1.9,3.3-2.9,5.3c-1,2-1.8,3.9-2.5,5.7c-0.8,1.9-1.4,3.9-2,6c-0.6,2.1-1,4.1-1.3,5.9
			c-0.3,1.8-0.4,3.4-0.3,4.7c0.1,1.3,0.4,2.1,1.1,2.4c0.5,0.3,1.2,0.1,2-0.5c0.8-0.7,1.7-1.7,2.6-3.1c0.9-1.4,1.8-3.1,2.8-5.1
			c0.9-2,1.8-4.2,2.6-6.6c0.7-1.9,1.3-3.9,1.8-6s1-4.2,1.3-6c0.3-1.9,0.4-3.5,0.4-4.8S167.8,148.8,167.3,148.5z"/>
		<path id="XMLID_110_" class="st0" d="M185,143.1c1.2-0.8,2.5-1.5,3.9-2.1c1.5-0.6,3-1.1,4.5-1.4c1.6-0.3,3.1-0.4,4.7-0.3
			c1.6,0.1,3,0.5,4.4,1.2c1.4,0.7,2.6,1.8,3.6,3.2c1,1.4,1.8,3.3,2.4,5.7c0.5,2,0.6,4.2,0.5,6.7c-0.2,2.5-0.7,5.1-1.4,7.9
			c-0.8,2.7-1.9,5.5-3.3,8.2c-1.4,2.7-3.2,5.3-5.2,7.8c-2,2.5-4.4,4.7-7,6.7c-2.6,2-5.5,3.6-8.7,4.7c-1.7,0.9-3.3,0.7-4.7-0.6
			c-0.7-0.5-1.3-1.1-1.8-1.7c-0.5-0.6-1-1.4-1.7-2.2c-0.2-0.4-0.4-0.8-0.6-1.2c-0.2-0.4-0.3-0.8-0.3-1.3c0-0.5,0-1.1,0-1.8
			c0.1-0.7,0.2-1.6,0.4-2.6L185,143.1z M182.9,181.2c2.5-1.4,4.7-3.1,6.7-5c1.9-1.9,3.6-3.9,5-6c1.4-2.1,2.5-4.1,3.3-6.2
			c0.8-2.1,1.4-3.9,1.8-5.6c0.4-2.2,0.5-4,0.3-5.4c-0.3-1.2-0.9-2.2-2-2.8c-1.1-0.6-2.6-0.5-4.5,0.2c-1.9,4.9-3.7,9.8-5.4,14.9
			C186.4,170.5,184.6,175.8,182.9,181.2z"/>
		<path id="XMLID_113_" class="st0" d="M218.1,175.1c-0.9,2.6-1.7,5.1-2.5,7.5c-0.8,2.4-1.6,4.9-2.4,7.3c-0.2,0.6-0.5,1-0.8,1.3
			c-0.3,0.2-0.8,0.2-1.4,0c-0.8-0.3-1.4-0.5-2-0.7c-0.6-0.1-1.1-0.4-1.6-0.9c-0.4-0.5-0.6-1.1-0.6-1.8c-0.1-0.7,0.1-1.6,0.4-2.8
			c0.3-1.2,0.8-3.1,1.4-5.5c0.6-2.4,1.4-5.1,2.2-8c0.8-2.9,1.7-5.9,2.6-9c0.9-3.1,1.9-6,2.7-8.6c0.9-2.6,1.7-4.9,2.5-6.7
			c0.8-1.8,1.4-2.9,2-3.2c1.8-1,3.6-1.9,5.6-2.8c1.9-0.9,3.8-1.6,5.5-2c1.8-0.4,3.4-0.4,4.9-0.1c1.5,0.3,2.7,1.2,3.6,2.7
			c0.7,1.3,1.3,2.7,1.9,4.3c0.5,1.6,0.8,3.5,0.9,5.8c0,1.2,0,2.3-0.2,3.3c-0.2,1-0.5,2-1,2.9c-1.3,2.7-3.2,5.2-5.9,7.5
			c-2.6,2.3-5.7,4.5-9.1,6.5c0.5,1.1,1,2.2,1.6,3.5c0.6,1.2,1.2,2.5,1.8,3.8c0.6,1.2,1.3,2.4,1.9,3.6s1.3,2.2,1.9,3
			c0.5,0.8,0.7,1.4,0.5,1.8c-0.1,0.4-0.5,0.9-1,1.4c-0.6,0.6-1.1,1-1.5,1.1s-0.9,0.2-1.4,0.2c-0.7,0.3-1.4,0.3-2.1,0.2
			c-0.8-0.1-1.6-0.6-2.5-1.4c-0.5-0.7-1.1-1.6-1.8-2.7c-0.7-1.1-1.4-2.2-2.1-3.5c-0.7-1.2-1.4-2.6-2.1-3.9
			C219.3,177.8,218.7,176.5,218.1,175.1z M227,151.3c-0.8,1.9-1.6,3.9-2.4,6.1c-0.8,2.2-1.7,4.6-2.7,7.1c2.1-0.9,3.9-2,5.6-3.3
			c1.7-1.3,3.1-2.6,4.3-3.9c1.2-1.3,2.1-2.5,2.7-3.7c0.6-1.2,0.9-2.1,0.9-2.7c-0.2-1-1.1-1.5-2.6-1.5c-0.8,0-1.6,0.1-2.6,0.4
			C229.3,150.2,228.2,150.6,227,151.3z"/>
		<path id="XMLID_116_" class="st0" d="M270.7,143.3c0.8,1.1,1.4,2.2,1.7,3.5c0.3,1.3,0.4,2.7,0.4,4.2c-0.1,2.8-0.5,5.8-1.1,9.2
			c-0.6,3.4-1.6,6.8-2.7,10.2c-1.2,3.4-2.6,6.7-4.2,9.8c-1.6,3.1-3.5,5.9-5.5,8.1c-1.4,1.4-2.8,2.3-4.2,2.7
			c-1.4,0.4-2.9,0.5-4.6,0.2c-1.1-0.2-2.2-0.4-3.3-0.8c-1.1-0.3-2.1-0.9-2.9-1.6c-0.7-0.6-1.3-1.4-1.8-2.4c-0.6-1-0.9-2.1-1.2-3.3
			c-0.4-2.9-0.3-6.3,0.3-10.1c0.6-3.8,1.6-7.6,2.9-11.4c1.4-3.8,3.1-7.4,5.1-10.9c2.1-3.5,4.4-6.4,6.9-8.8c1.1-0.9,2.3-1.6,3.6-2.1
			c1.3-0.5,2.5-0.6,3.6-0.4c1.4,0.3,2.8,0.8,4,1.4C268.9,141.5,269.9,142.3,270.7,143.3z M263.5,148.5c-0.5-0.2-1.2,0.1-2,1
			s-1.8,2.1-2.7,3.7c-1,1.5-1.9,3.3-2.9,5.3c-1,2-1.8,3.9-2.5,5.7c-0.8,1.9-1.4,3.9-2,6c-0.6,2.1-1,4.1-1.3,5.9
			c-0.3,1.8-0.4,3.4-0.3,4.7c0.1,1.3,0.4,2.1,1.1,2.4c0.5,0.3,1.2,0.1,2-0.5s1.7-1.7,2.6-3.1c0.9-1.4,1.8-3.1,2.8-5.1
			c0.9-2,1.8-4.2,2.6-6.6c0.7-1.9,1.3-3.9,1.8-6c0.6-2.1,1-4.2,1.3-6c0.3-1.9,0.4-3.5,0.4-4.8S264,148.8,263.5,148.5z"/>
		<path id="XMLID_119_" class="st0" d="M285.2,159.8c-0.9,2.7-1.9,5.4-2.8,8.2c-0.9,2.8-1.8,5.5-2.6,8.1c-0.8,2.7-1.6,5.2-2.3,7.5
			c-0.7,2.4-1.3,4.5-1.9,6.4c-0.3,0.7-0.6,1.1-0.9,1.4c-0.3,0.2-0.8,0.3-1.5,0c-0.6-0.2-1.2-0.5-1.8-0.7c-0.6-0.3-1.1-0.6-1.6-1.1
			c-0.6-0.5-1-1.1-1.1-1.7c-0.1-0.6,0-1.5,0.3-2.7c0.4-1.7,0.8-3.6,1.4-6c0.6-2.3,1.3-4.8,2-7.4c0.8-2.6,1.6-5.4,2.4-8.2
			s1.7-5.5,2.6-8.2c0.8-2.6,1.7-5.1,2.4-7.4c0.8-2.3,1.5-4.3,2.1-5.9c0.5-1.2,1-1.9,1.4-2.2c0.5-0.3,1.1-0.4,2-0.2
			c1.3,0.3,2.5,0.6,3.4,0.9c0.9,0.4,1.8,0.8,2.7,1.3c1.1,0.6,1.8,1.4,1.9,2.2s0.2,1.9,0.1,3.3c-0.1,0.6-0.2,1.3-0.2,1.9
			c0,0.6-0.1,1.3-0.1,2.1l-0.3,4.6l-0.4,4.8l-0.3,4.7c0.7-1.4,1.4-2.9,2.3-4.6c0.8-1.7,1.7-3.3,2.7-5c0.9-1.7,1.9-3.4,2.8-5.1
			c0.9-1.7,1.8-3.2,2.7-4.7c0.8-1.6,1.6-2.9,2.2-4c0.6-1,1.2-1.8,1.7-2.3c0.5-0.5,1.1-0.8,1.7-0.9c0.6-0.1,1.3,0.1,2.1,0.4
			c1,0.4,2.1,0.8,3.2,1.3c1.1,0.5,2.2,1.1,3.2,1.8c0.7,0.5,1.1,1.1,1.3,1.7c0.1,0.6,0,1.6-0.5,2.7c-0.6,1.7-1.3,3.8-2.1,6.1
			c-0.8,2.3-1.6,4.8-2.5,7.5c-0.9,2.6-1.8,5.3-2.7,8.1c-0.9,2.8-1.8,5.4-2.6,8c-0.8,2.6-1.6,5-2.2,7.2s-1.3,4.1-1.7,5.7
			c-0.3,0.7-0.6,1.2-0.9,1.5c-0.3,0.4-0.8,0.4-1.6,0.1c-0.6-0.2-1.3-0.5-1.9-0.7c-0.7-0.2-1.2-0.6-1.7-1c-0.6-0.5-1-1.1-1.1-1.7
			c-0.1-0.7,0-1.6,0.4-2.7c0.3-1.3,0.7-2.9,1.3-5c0.6-2,1.2-4.2,1.9-6.6c0.7-2.4,1.5-4.8,2.3-7.3c0.8-2.5,1.6-5,2.4-7.3
			c-1.1,2-2.3,4.3-3.7,6.7c-1.3,2.5-2.6,4.9-3.9,7.4c-1.3,2.4-2.5,4.8-3.6,7s-2.1,4.1-2.8,5.6c-0.4,0.9-0.8,1.5-1.1,1.8
			c-0.3,0.3-0.8,0.3-1.5,0.1c-1.1-0.3-2-0.7-2.9-1.2c-0.6-0.4-1-0.8-1.2-1.3c-0.2-0.5-0.3-1.6-0.3-3.1c0-3.1,0.2-6.5,0.4-10.4
			C284.5,167.6,284.8,163.7,285.2,159.8z"/>
		<path id="XMLID_121_" class="st0" d="M342.9,143.3c0.8,1.1,1.4,2.2,1.7,3.5c0.3,1.3,0.4,2.7,0.4,4.2c-0.1,2.8-0.5,5.8-1.1,9.2
			c-0.6,3.4-1.6,6.8-2.7,10.2c-1.2,3.4-2.6,6.7-4.2,9.8c-1.6,3.1-3.5,5.9-5.5,8.1c-1.4,1.4-2.8,2.3-4.2,2.7
			c-1.4,0.4-2.9,0.5-4.6,0.2c-1.1-0.2-2.2-0.4-3.3-0.8c-1.1-0.3-2.1-0.9-2.9-1.6c-0.7-0.6-1.3-1.4-1.8-2.4c-0.6-1-0.9-2.1-1.2-3.3
			c-0.4-2.9-0.3-6.3,0.3-10.1c0.6-3.8,1.6-7.6,2.9-11.4c1.4-3.8,3.1-7.4,5.1-10.9c2.1-3.5,4.4-6.4,6.9-8.8c1.1-0.9,2.3-1.6,3.6-2.1
			s2.5-0.6,3.6-0.4c1.4,0.3,2.8,0.8,4,1.4C341.2,141.5,342.2,142.3,342.9,143.3z M335.8,148.5c-0.5-0.2-1.2,0.1-2,1
			c-0.9,0.9-1.8,2.1-2.7,3.7c-1,1.5-1.9,3.3-2.9,5.3c-1,2-1.8,3.9-2.5,5.7c-0.8,1.9-1.4,3.9-2,6c-0.6,2.1-1,4.1-1.3,5.9
			c-0.3,1.8-0.4,3.4-0.3,4.7c0.1,1.3,0.4,2.1,1.1,2.4c0.5,0.3,1.2,0.1,2-0.5c0.8-0.7,1.7-1.7,2.6-3.1c0.9-1.4,1.8-3.1,2.8-5.1
			c0.9-2,1.8-4.2,2.6-6.6c0.7-1.9,1.3-3.9,1.8-6c0.6-2.1,1-4.2,1.3-6c0.3-1.9,0.4-3.5,0.4-4.8C336.5,149.6,336.3,148.8,335.8,148.5z
			"/>
	</g>
</g>
<g id="XMLID_1_">
	<path id="XMLID_28_" class="st1" d="M187.5,7.2l6.3-7c0.3-0.3,0.8-0.4,1.1-0.1c0.1,0.1,0.2,0.3,0.2,0.4l2.2,10l-1-0.6l9.7-3.1
		c0.4-0.1,0.9,0.1,1,0.5c0.1,0.2,0.1,0.4,0,0.5l-3.1,9.8l-0.6-1.1l10,2.1c0.5,0.1,0.8,0.6,0.7,1c0,0.2-0.1,0.3-0.3,0.5l-7.6,6.9
		v-1.3l7.6,6.9c0.4,0.3,0.4,0.9,0.1,1.3c-0.1,0.1-0.3,0.2-0.5,0.3l-10,2.2l0.7-1.2l3.1,9.7c0.2,0.5-0.1,1-0.6,1.2
		c-0.2,0.1-0.4,0.1-0.6,0l-9.8-3.1l1.2-0.7l-2.1,10c-0.1,0.5-0.6,0.8-1.1,0.7c-0.2,0-0.4-0.2-0.5-0.3l-6.9-7.6h1.4l-6.9,7.6
		c-0.4,0.4-1,0.4-1.4,0.1c-0.2-0.1-0.3-0.3-0.3-0.5l-2.1-10l1.2,0.7l-9.8,3.1c-0.5,0.2-1-0.1-1.2-0.6c-0.1-0.2-0.1-0.4,0-0.6
		l3.1-9.7l0.7,1.2l-10-2.2c-0.5-0.1-0.8-0.6-0.7-1.1c0-0.2,0.1-0.4,0.3-0.5l7.6-6.9v1.3l-7.6-6.9c-0.4-0.3-0.4-0.9-0.1-1.2
		c0.1-0.1,0.3-0.2,0.5-0.3l10-2.1l-0.6,1.1l-3.1-9.8c-0.1-0.4,0.1-0.9,0.5-1c0.2-0.1,0.4-0.1,0.5,0l9.7,3.1l-1,0.6l2.2-10
		c0.1-0.4,0.5-0.7,0.9-0.6c0.2,0,0.3,0.1,0.4,0.2L187.5,7.2z M186.9,8.9L180,1.3l1.4-0.4l-2.1,10c-0.1,0.4-0.5,0.7-1,0.6l-0.1,0
		l-9.8-3.1l1-1l3.1,9.7c0.1,0.4-0.1,0.9-0.5,1.1l-0.1,0l-10,2.2l0.4-1.5l7.6,6.9c0.4,0.3,0.4,0.9,0.1,1.2l-0.1,0.1l-7.6,6.9
		l-0.4-1.5l10,2.1c0.5,0.1,0.8,0.6,0.7,1.1l0,0.1l-3.1,9.8l-1.2-1.2l9.7-3.1c0.5-0.2,1,0.1,1.2,0.6l0,0.1l2.2,10l-1.6-0.4l6.9-7.6
		c0.4-0.4,1-0.4,1.4-0.1l0.1,0.1l6.9,7.6l-1.6,0.4l2.2-10c0.1-0.5,0.6-0.8,1.1-0.7l0.1,0l9.7,3.1l-1.2,1.2l-3.1-9.8
		c-0.2-0.5,0.1-1,0.6-1.1l0.1,0l10-2.1l-0.4,1.5l-7.6-6.9c-0.4-0.3-0.4-0.9-0.1-1.2l0.1-0.1l7.6-6.9l0.4,1.5l-10-2.2
		c-0.5-0.1-0.7-0.5-0.6-1l0-0.1l3.1-9.7l1,1l-9.8,3.1c-0.4,0.1-0.9-0.1-1-0.5l0-0.1l-2.1-10l1.4,0.4L188,8.9
		C187.7,9.2,187.3,9.3,186.9,8.9C186.9,8.9,186.9,8.9,186.9,8.9z"/>
	<path id="XMLID_32_" class="st1" d="M127.6,94.9c0,0-1.8,0.3-4.9,0.8c-1.5,0.3-3.4,0.6-5.6,0.9c-1.1,0.2-2.2,0.4-3.4,0.6
		c-0.6,0.1-1.2,0.2-1.9,0.3c-0.8,0.1-1.6,0-2.3-0.4c-0.8-0.3-1.4-0.8-1.9-1.5c-0.3-0.3-0.5-0.7-0.6-1.1c-0.1-0.4-0.3-0.9-0.3-1.2
		c-0.2-1.4-0.5-2.9-0.7-4.4c-0.5-3-1-6.2-1.6-9.6c-0.5-3.3-1.1-6.7-1.7-10.2c-0.1-0.9-0.3-1.7-0.4-2.6c-0.1-0.9-0.4-1.7-0.4-2.8
		c0-2.3,1.8-4.3,4.1-4.7c3.5-0.6,7.1-1.1,10.6-1.7c1.8-0.3,3.5-0.5,5.2-0.8c2.2-0.3,4.3,1.1,5,3.1c0.3,1.1,0.3,1.8,0.5,2.6
		c0.1,0.8,0.3,1.6,0.4,2.4c0.3,1.6,0.5,3.2,0.7,4.7c0.5,3,0.9,5.9,1.4,8.6c0.4,2.7,0.8,5.1,1.1,7.2c0.2,1.1,0.3,2.1,0.5,3
		c0.1,0.5,0.1,0.9,0.2,1.3c0,0.3,0.1,0.4,0.1,0.7c0,0.3,0,0.5,0,0.7c-0.3,1.9-1.6,3-2.4,3.4c-0.4,0.2-0.8,0.3-1.1,0.4
		C127.8,94.9,127.6,94.9,127.6,94.9z M127.4,93.4c0,0,0.1,0,0.3-0.1c0.2,0,0.4-0.1,0.7-0.3c0.6-0.3,1.4-1,1.6-2.3c0-0.2,0-0.3,0-0.5
		c0-0.1,0-0.4,0-0.5c-0.1-0.4-0.1-0.9-0.2-1.3c-0.2-0.9-0.3-1.9-0.5-3c-0.4-2.2-0.8-4.6-1.2-7.2c-0.4-2.6-0.9-5.5-1.4-8.6
		c-0.3-1.5-0.5-3.1-0.8-4.7c-0.1-0.8-0.3-1.6-0.4-2.4c-0.1-0.8-0.2-1.8-0.4-2.3c-0.4-1.2-1.8-2.1-3.1-1.9c-1.7,0.3-3.4,0.5-5.1,0.8
		c-3.5,0.6-7,1.1-10.5,1.7c-1.3,0.2-2.4,1.4-2.5,2.8c0,0.7,0.2,1.6,0.3,2.5c0.1,0.9,0.3,1.8,0.4,2.6c0.6,3.5,1.1,6.9,1.6,10.2
		c0.5,3.3,1,6.5,1.5,9.6c0.2,1.5,0.5,3,0.7,4.4c0.1,1.3,0.9,2.2,1.8,2.6c0.5,0.2,1,0.3,1.5,0.2c0.6-0.1,1.2-0.2,1.8-0.3
		c1.2-0.2,2.4-0.4,3.4-0.5c2.2-0.3,4-0.6,5.6-0.9C125.6,93.7,127.4,93.4,127.4,93.4z"/>
	<path id="XMLID_29_" class="st1" d="M167.9,86.8c0,0,0.1-0.1,0.4-0.2c0.3-0.1,0.7-0.3,1.3-0.6c1.2-0.5,2.9-1,5.2-1.5
		c2.3-0.5,5-1,8.2-1.3c3.2-0.3,6.8-0.6,10.8-0.5c4,0.1,8.2,0.4,12.6,0.6c2.2,0.1,4.5,0.2,6.8,0.2c1.2,0,2.3,0,3.5-0.1
		c0.6,0,1.2-0.1,1.7-0.1c0.6-0.1,1.3-0.1,1.8-0.3c1-0.2,2.1-0.6,2.9-1.3c0.8-0.6,1.2-1.6,1.1-2.5c-0.1-1-0.6-2-1.4-2.6
		c-0.4-0.4-0.8-0.5-1.3-0.6c-0.6-0.1-1.3-0.3-1.9-0.4c-5-1.2-10.1-2.3-15.2-3.2c-5.1-0.9-10.3-1.6-15.3-2.9c-2.5-0.6-5-1.5-7.4-2.6
		c-2.3-1.2-4.4-2.6-6.5-3.8c-4.2-2.5-8.3-4.7-12.4-6.3c-4.1-1.6-8.2-2.4-12-2.3c-3.8,0.1-7.3,0.9-10.3,1.7c-3,0.9-5.6,1.8-7.7,2.6
		c-2.1,0.8-3.8,1.5-4.9,1.9c-1.1,0.5-1.7,0.7-1.7,0.7c-0.4,0.2-0.9,0-1-0.4c-0.2-0.4,0-0.9,0.4-1c0,0,0.6-0.3,1.7-0.7
		c1.1-0.5,2.8-1.2,4.9-2c2.1-0.8,4.8-1.8,7.8-2.7c3.1-0.9,6.7-1.8,10.7-1.9c4.1-0.1,8.4,0.8,12.7,2.4c4.3,1.6,8.5,3.9,12.7,6.4
		c2.1,1.2,4.2,2.6,6.4,3.7c2.2,1.1,4.5,1.8,7,2.5c4.9,1.3,10,1.9,15.2,2.8c5.1,0.9,10.3,2.1,15.2,3.3c0.6,0.1,1.2,0.3,1.8,0.4
		c0.8,0.2,1.6,0.5,2.1,1c1.2,1,1.9,2.4,2,3.9c0.1,1.5-0.6,3.2-1.7,4.1c-1.2,0.9-2.4,1.4-3.8,1.7c-0.7,0.2-1.2,0.2-1.8,0.3
		c-0.7,0.1-1.3,0.1-1.9,0.1c-1.2,0-2.4,0.1-3.6,0.1c-2.4,0-4.7-0.1-6.9-0.2c-4.5-0.2-8.7-0.6-12.6-0.7c-7.7-0.1-14.2,0.7-18.6,1.7
		c-2.2,0.5-3.9,1-5,1.4c-0.5,0.2-1,0.4-1.3,0.5c-0.3,0.1-0.4,0.2-0.4,0.2c-0.4,0.2-0.9,0-1-0.4C167.3,87.4,167.5,87,167.9,86.8z"/>
	<path id="XMLID_31_" class="st1" d="M130.9,88.8c0,0,1.4,0.2,3.9,0.6c2.5,0.4,6,1,10.2,2c2.1,0.5,4.4,1.1,6.7,1.8
		c2.4,0.7,4.8,1.7,7.3,2.5c5,1.6,10.6,2.9,16.2,3.7c2.8,0.4,5.6,0.8,8.3,0.7l1,0l0.9-0.1c0.3-0.1,0.5-0.1,0.8-0.2
		c0.3-0.1,0.6-0.3,0.9-0.4c1.2-0.6,2.4-1.3,3.5-1.9c4.7-2.6,9-5.1,12.8-7.2c3.7-2.1,6.9-3.8,9.2-4.9c2.3-1.1,3.6-1.7,3.6-1.7
		c0.4-0.2,0.9,0,1,0.4c0.2,0.4,0,0.8-0.4,1c0,0-1.3,0.5-3.5,1.7c-2.2,1.1-5.3,2.9-9,5c-3.7,2.1-8.1,4.6-12.7,7.3
		c-1.2,0.7-2.3,1.3-3.6,2c-0.3,0.2-0.6,0.3-0.9,0.5c-0.3,0.2-0.8,0.3-1.2,0.4l-1.1,0.1l-1.1,0c-2.9,0-5.8-0.3-8.7-0.7
		c-5.7-0.9-11.3-2.2-16.5-3.9c-2.6-0.9-5-1.8-7.3-2.5c-2.3-0.7-4.6-1.3-6.6-1.8c-4.1-1-7.6-1.7-10.1-2.1c-2.5-0.4-3.9-0.6-3.9-0.6
		c-0.4-0.1-0.7-0.5-0.7-0.9C130.1,89.1,130.5,88.8,130.9,88.8z"/>
	<path id="XMLID_24_" class="st1" d="M224.9,77.8c0,0,3.2-2.1,7.9-5.1c2.4-1.5,5.2-3.3,8.1-5.2c0.7-0.5,1.5-1,2.2-1.5
		c0.7-0.5,1.4-1.1,1.8-1.7c0.2-0.3,0.3-0.5,0.3-0.7c0-0.1,0-0.2-0.1-0.3l-0.1-0.1l0-0.1l0,0l0,0c0,0,0.2,0.2,0.1,0.1l-0.2-0.3
		c-0.2-0.1-0.1,0-0.3-0.1c-0.2-0.1-0.3-0.1-0.5-0.2c-0.4-0.1-0.8-0.2-1.2-0.2c-1.7-0.1-3.6,0.1-5.3,0.5c-1.7,0.4-3.4,1-5,1.7
		c-0.8,0.4-1.5,0.8-2.3,1.2c-0.7,0.4-1.4,0.8-2.1,1.2c-1.4,0.8-2.7,1.6-3.9,2.4c-4.8,3-7.9,5.1-7.9,5.1c-0.4,0.2-0.8,0.1-1.1-0.2
		c-0.2-0.4-0.1-0.8,0.2-1.1c0,0,0.8-0.5,2.1-1.5c1.4-0.9,3.3-2.3,5.7-3.8c1.2-0.8,2.5-1.6,3.9-2.4c0.7-0.4,1.4-0.9,2.2-1.3
		c0.7-0.4,1.5-0.8,2.4-1.2c1.7-0.8,3.4-1.4,5.3-1.9c1.9-0.4,3.8-0.8,5.9-0.6c0.5,0,1,0.1,1.6,0.3c0.3,0.1,0.6,0.2,0.8,0.3
		c0.3,0.1,0.7,0.5,0.9,0.6l0.2,0.3c-0.1-0.1,0.1,0.2,0.1,0.1l0,0l0,0.1l0.1,0.1l0.1,0.2c0.1,0.3,0.2,0.7,0.2,1
		c0,0.8-0.3,1.4-0.7,1.9c-0.7,0.9-1.5,1.5-2.2,2.1c-0.8,0.6-1.5,1.1-2.3,1.6c-3,2-5.8,3.7-8.2,5.2c-4.8,3-8,5-8,5
		c-0.4,0.2-0.8,0.1-1.1-0.3C224.4,78.6,224.5,78.1,224.9,77.8z"/>
	<path id="XMLID_35_" class="st1" d="M242.1,60.8c0,0,0.6-0.4,1.5-1.3c0.4-0.4,1-1,1.1-1.5c0-0.2,0-0.4-0.2-0.6
		c-0.2-0.3-0.3-0.3-0.4-0.4c-0.2-0.1-0.3-0.2-0.6-0.3c-0.8-0.4-2-0.5-3.2-0.5c-1.2,0-2.5,0.3-3.8,0.6c-1.3,0.3-2.6,0.8-4,1.4
		c-0.7,0.3-1.3,0.6-2,0.9c-0.7,0.3-1.3,0.6-2,1c-2.6,1.4-5.1,3-7.5,4.5c-2.4,1.5-4.6,2.9-6.5,4.1c-3.8,2.4-6.3,4-6.3,4
		c-0.4,0.2-0.8,0.1-1.1-0.2c-0.2-0.4-0.1-0.8,0.2-1.1c0,0,2.5-1.7,6.2-4.2c1.9-1.2,4.1-2.6,6.5-4.1c2.4-1.5,4.9-3.1,7.6-4.6
		c1.3-0.7,2.7-1.4,4.1-2c1.4-0.6,2.8-1.1,4.2-1.4c1.4-0.3,2.8-0.6,4.2-0.6c1.4,0,2.7,0.1,3.9,0.7c0.3,0.1,0.6,0.3,0.9,0.5
		c0.3,0.2,0.6,0.6,0.7,0.7l0.1,0.2l0.1,0.1l0,0l0,0l0,0.1l0.1,0.1c0.1,0.2,0.1,0.4,0.2,0.5c0.1,0.4,0.1,0.8,0,1.1
		c-0.5,1.3-1.2,1.8-1.7,2.2c-1.1,0.9-1.7,1.3-1.7,1.3l-0.1,0c-0.4,0.2-0.8,0.1-1.1-0.2C241.6,61.5,241.7,61.1,242.1,60.8z"/>
	<path id="XMLID_36_" class="st1" d="M233.3,55.9c0,0,0,0,0-0.1c0,0,0-0.1,0-0.2c0-0.1,0-0.4-0.2-0.5c-0.3-0.3-0.3-0.2-0.5-0.3
		c-0.2-0.1-0.5-0.1-0.8-0.1c-0.7,0-1.5,0-2.3,0.2c-1.7,0.3-3.8,1-5.9,2c-1,0.5-2.1,1-3.1,1.6c-1,0.6-2.1,1.3-3.1,2
		c-4.2,2.7-8.5,5.4-11.6,7.4c-3.2,2-5.3,3.3-5.3,3.3c-0.4,0.2-0.8,0.1-1.1-0.2c-0.2-0.4-0.1-0.8,0.2-1.1l0,0c0,0,2.1-1.4,5.2-3.5
		c3.1-2.1,7.3-4.8,11.5-7.6c1.1-0.7,2.1-1.4,3.2-2c1.1-0.6,2.2-1.2,3.3-1.7c2.2-1,4.4-1.7,6.3-2c1-0.2,1.9-0.2,2.8-0.1
		c0.4,0.1,0.9,0.1,1.3,0.3c0.4,0.1,1,0.5,1,0.7c0.6,0.6,0.7,1.3,0.7,1.8c0,0.2-0.1,0.4-0.1,0.5c0,0.1,0,0.1,0,0.1
		c-0.1,0.4-0.6,0.6-1,0.5C233.4,56.8,233.2,56.4,233.3,55.9L233.3,55.9z"/>
</g>
</svg>
