<?xml version="1.0" encoding="utf-8"?>
<!-- Generator: Adobe Illustrator 21.0.0, SVG Export Plug-In . SVG Version: 6.00 Build 0)  -->
<svg version="1.1" id="Layer_1" xmlns="http://www.w3.org/2000/svg" xmlns:xlink="http://www.w3.org/1999/xlink" x="0px" y="0px"
	 viewBox="0 0 449 315" style="enable-background:new 0 0 449 315;" xml:space="preserve">
<style type="text/css">
	.st0{fill:#EFAACB;}
</style>
<g id="XMLID_10_">
	<path id="XMLID_20_" class="st0" d="M264.3,22l19.4-21.5c0.9-1,2.5-1.1,3.5-0.2c0.4,0.4,0.7,0.8,0.8,1.3l6.7,30.9l-3.2-1.9
		l30.1-9.7c1.3-0.4,2.8,0.3,3.2,1.6c0.2,0.5,0.2,1.1,0,1.6l-9.6,30.1l-1.9-3.3l30.9,6.6c1.4,0.3,2.3,1.7,2,3.2
		c-0.1,0.6-0.4,1.1-0.8,1.4L322,83.4v-4l23.5,21.2c1.1,1,1.2,2.8,0.2,3.9c-0.4,0.4-0.9,0.7-1.5,0.8l-30.9,6.7l2.1-3.6l9.7,30.1
		c0.5,1.5-0.3,3.1-1.8,3.6c-0.6,0.2-1.2,0.2-1.8,0l-30.1-9.6l3.7-2.2l-6.6,30.9c-0.3,1.6-1.9,2.6-3.5,2.3c-0.6-0.1-1.2-0.5-1.6-0.9
		l-21.3-23.4h4.5l-21.3,23.4c-1.1,1.2-3,1.3-4.2,0.2c-0.5-0.4-0.8-1-0.9-1.6l-6.6-30.9l3.7,2.2l-30.1,9.6c-1.5,0.5-3.1-0.3-3.6-1.8
		c-0.2-0.6-0.2-1.2,0-1.8l9.7-30.1l2.1,3.6l-30.9-6.7c-1.5-0.3-2.4-1.8-2.1-3.3c0.1-0.6,0.4-1.1,0.8-1.5l23.5-21.2v4L183.3,62
		c-1.1-1-1.2-2.7-0.2-3.8c0.4-0.4,0.9-0.7,1.4-0.8l30.9-6.6l-1.9,3.4l-9.6-30.1c-0.4-1.3,0.3-2.8,1.6-3.2c0.5-0.2,1.1-0.2,1.6,0
		l30.1,9.7l-3.2,1.9l6.7-30.9c0.3-1.3,1.6-2.2,2.9-1.9c0.5,0.1,1,0.4,1.3,0.8L264.3,22z M262.5,27.2L241.3,3.8l4.2-1.1l-6.6,30.9
		c-0.3,1.4-1.6,2.2-3,1.9l-0.2-0.1l-30.1-9.6l3.2-3.2l9.7,30.1c0.4,1.4-0.3,2.8-1.7,3.3l-0.3,0.1l-30.9,6.7l1.2-4.6l23.5,21.2
		c1.1,1,1.2,2.7,0.2,3.8l-0.2,0.2L187,104.6l-1.3-4.7l30.9,6.6c1.5,0.3,2.5,1.8,2.2,3.3l-0.1,0.3l-9.6,30.1l-3.6-3.6l30.1-9.7
		c1.5-0.5,3.2,0.3,3.7,1.9l0.1,0.3L246,160l-5.1-1.4l21.2-23.5c1.1-1.2,3-1.3,4.2-0.2l0.2,0.2l21.2,23.5l-5.1,1.4l6.7-30.9
		c0.3-1.6,1.9-2.6,3.5-2.2l0.3,0.1l30.1,9.7l-3.6,3.6l-9.6-30.1c-0.5-1.5,0.3-3.1,1.8-3.5l0.3-0.1L343,100l-1.3,4.7l-23.4-21.3
		c-1.1-1-1.2-2.7-0.2-3.8l0.2-0.2l23.5-21.2l1.2,4.6L312.1,56c-1.4-0.3-2.3-1.7-2-3.1l0.1-0.3l9.7-30.1l3.2,3.2L293,35.4
		c-1.3,0.4-2.7-0.3-3.2-1.6l-0.1-0.2l-6.6-30.9l4.2,1.1L266,27.2c-0.9,1-2.4,1.1-3.4,0.2C262.7,27.3,262.6,27.2,262.5,27.2z"/>
	<path id="XMLID_17_" class="st0" d="M79.6,292.8c0,0-5.5,0.9-15,2.4c-4.8,0.8-10.6,1.7-17.2,2.8c-3.3,0.5-6.9,1.1-10.6,1.7
		c-1.9,0.3-3.6,0.6-5.9,0.9c-2.4,0.3-5-0.1-7.3-1.1s-4.4-2.6-6-4.7c-0.8-1-1.4-2.2-1.9-3.5c-0.5-1.2-0.8-2.8-0.9-3.7
		c-0.7-4.4-1.5-9-2.3-13.7c-1.6-9.4-3.2-19.3-4.9-29.5C6,234.3,4.3,223.7,2.5,213c-0.4-2.7-0.9-5.4-1.3-8.1
		c-0.3-2.7-1.1-5.2-1.2-8.7c0.1-7,5.6-13.4,12.6-14.4c10.9-1.7,21.8-3.4,32.6-5.1c5.4-0.8,10.8-1.7,16.1-2.5
		c6.7-0.8,13.2,3.5,15.4,9.6c1.1,3.3,1.1,5.5,1.6,8.1c0.4,2.5,0.8,5,1.2,7.5c0.8,4.9,1.5,9.7,2.3,14.4c1.5,9.4,2.9,18.3,4.2,26.4
		c1.3,8.2,2.5,15.7,3.5,22.4c0.5,3.3,1,6.4,1.5,9.3c0.2,1.4,0.4,2.8,0.7,4.1c0.1,1,0.2,1.2,0.2,2.2c0,0.9-0.1,1.6-0.1,2.3
		c-0.9,5.9-4.8,9.3-7.5,10.6c-1.4,0.7-2.5,1.1-3.3,1.3C80,292.7,79.6,292.8,79.6,292.8z M78.9,288c0,0,0.3-0.1,0.8-0.2
		s1.3-0.4,2.2-0.9c1.8-0.9,4.3-3.2,4.9-7.1c0-0.5,0.1-1,0.1-1.4c0.1-0.3-0.1-1.3-0.1-1.7c-0.2-1.3-0.4-2.7-0.7-4.1
		c-0.5-2.9-1-6-1.5-9.3c-1.1-6.6-2.3-14.1-3.7-22.3c-1.4-8.2-2.8-17-4.4-26.4c-0.8-4.7-1.6-9.5-2.4-14.4c-0.4-2.5-0.8-4.9-1.2-7.5
		c-0.4-2.4-0.8-5.4-1.3-7c-1.4-3.7-5.5-6.4-9.6-5.9c-5.2,0.8-10.5,1.7-15.8,2.6c-10.7,1.8-21.7,3.5-32.6,5.3
		c-4.1,0.6-7.5,4.4-7.6,8.6c0,2,0.7,4.9,1,7.6c0.4,2.7,0.9,5.4,1.3,8.1c1.7,10.7,3.4,21.3,5,31.6c1.6,10.2,3.2,20.1,4.7,29.5
		c0.7,4.7,1.5,9.3,2.2,13.7c0.4,3.9,2.7,6.6,5.7,8c1.5,0.7,3,0.9,4.6,0.7c1.7-0.2,3.8-0.6,5.6-0.8c3.7-0.6,7.3-1.1,10.6-1.7
		c6.7-1,12.5-1.9,17.2-2.7C73.4,288.9,78.9,288,78.9,288z"/>
	<path id="XMLID_16_" class="st0" d="M203.9,267.6c0,0,0.5-0.2,1.3-0.6c0.9-0.4,2.1-1,4-1.7c3.7-1.5,9.1-3.2,16.1-4.8
		c7-1.6,15.5-3,25.4-4.1c9.8-1,21-1.8,33.2-1.6c12.2,0.3,25.2,1.3,39,2c6.9,0.3,13.9,0.6,21.1,0.6c3.6,0,7.2-0.1,10.9-0.2
		c1.8-0.1,3.8-0.2,5.3-0.3c1.8-0.3,3.9-0.4,5.4-0.8c3.2-0.7,6.5-2,8.9-3.9c2.4-2,3.6-4.8,3.4-7.8s-1.8-6.1-4.2-8.1
		c-1.2-1.1-2.5-1.5-3.9-1.9c-1.9-0.3-4-0.8-5.9-1.2c-15.5-3.6-31.1-7.1-46.9-10c-15.7-2.9-31.8-5-47.4-9c-7.8-2-15.5-4.5-22.7-8.1
		s-13.6-7.9-20.1-11.7c-12.9-7.7-25.6-14.6-38.3-19.4c-12.6-4.9-25.3-7.5-37-7.2s-22.4,2.7-31.7,5.3s-17.3,5.5-23.8,8
		s-11.6,4.6-15.1,6s-5.3,2.2-5.3,2.2c-1.2,0.5-2.6-0.1-3.2-1.3c-0.5-1.2,0.1-2.6,1.3-3.2c0,0,1.9-0.8,5.3-2.3
		c3.5-1.5,8.6-3.6,15.2-6.2c6.6-2.6,14.7-5.6,24.2-8.4c9.5-2.7,20.6-5.4,33-5.8c12.5-0.4,25.9,2.5,39.1,7.5s26.2,12,39.3,19.7
		c6.6,3.8,12.9,8.1,19.7,11.4c6.7,3.3,14,5.7,21.6,7.6c15.1,3.9,31,5.9,47,8.8c15.9,2.9,31.7,6.6,47.1,10.1c2,0.4,3.7,0.8,5.7,1.2
		c2.4,0.6,4.8,1.6,6.6,3.2c3.7,3,6,7.4,6.3,12.1c0.4,4.8-1.8,9.8-5.4,12.6c-3.6,2.9-7.5,4.4-11.7,5.2c-2.1,0.5-3.8,0.5-5.7,0.8
		c-2.2,0.2-3.9,0.3-5.8,0.4c-3.8,0.1-7.5,0.2-11.1,0.2c-7.3,0-14.5-0.3-21.4-0.7c-13.9-0.7-26.9-1.8-38.8-2.1
		c-23.9-0.2-43.9,2.2-57.4,5.1c-6.7,1.5-12,3.1-15.3,4.4c-1.7,0.6-3,1.3-3.9,1.6c-0.9,0.4-1.4,0.6-1.4,0.6c-1.2,0.5-2.6,0-3.2-1.2
		C202.1,269.6,202.7,268.1,203.9,267.6z"/>
	<path id="XMLID_15_" class="st0" d="M89.7,273.9c0,0,4.4,0.6,12.1,1.8c7.7,1.3,18.6,3.2,31.6,6.2c6.5,1.6,13.5,3.3,20.8,5.6
		c7.4,2.2,14.9,5.3,22.6,7.8c15.5,5.1,32.7,8.9,50,11.5c8.6,1.3,17.4,2.3,25.7,2.3l3.1-0.1l2.9-0.3c0.8-0.3,1.5-0.3,2.4-0.8
		c1-0.5,2-0.9,2.8-1.4c3.6-1.8,7.3-3.9,10.9-5.9c14.4-8.2,27.9-15.8,39.4-22.3c11.6-6.5,21.4-11.6,28.4-15.1s11.2-5.1,11.2-5.1
		c1.2-0.5,2.6,0.1,3.1,1.4c0.5,1.2-0.1,2.6-1.3,3.1c0,0-4,1.6-10.8,5.1s-16.4,8.9-27.9,15.4c-11.5,6.6-24.9,14.3-39.3,22.5
		c-3.7,2.1-7.2,4.1-11.2,6.2c-1,0.5-2,1-2.9,1.4c-1,0.6-2.5,0.8-3.7,1.2l-3.5,0.4l-3.4,0.1c-9,0.1-17.9-0.9-26.7-2.2
		c-17.6-2.7-35-6.7-50.9-12c-8-2.7-15.3-5.7-22.4-7.9c-7.2-2.3-14.1-4.1-20.4-5.6c-12.8-3.1-23.6-5.2-31.1-6.6
		c-7.6-1.4-11.9-2-11.9-2c-1.3-0.2-2.2-1.4-2-2.7C87.2,274.6,88.4,273.7,89.7,273.9z"/>
	<path id="XMLID_14_" class="st0" d="M379.9,240c0,0,9.8-6.3,24.5-15.8c7.4-4.7,16-10.1,25.1-16.2c2.3-1.5,4.5-3.1,6.7-4.7
		c2.1-1.6,4.3-3.4,5.6-5.1c0.6-0.9,0.9-1.6,0.9-2.2c0-0.3-0.1-0.6-0.3-1l-0.2-0.3l-0.1-0.2v-0.1l0,0c-0.1-0.1,0.5,0.7,0.2,0.3
		l-0.7-0.8c-0.5-0.4-0.3-0.1-0.8-0.4c-0.5-0.2-0.9-0.4-1.6-0.5c-1.1-0.3-2.4-0.5-3.7-0.6c-5.3-0.4-11,0.4-16.3,1.6
		c-5.4,1.2-10.6,3-15.4,5.3c-2.3,1.1-4.7,2.3-7,3.6c-2.2,1.3-4.4,2.6-6.6,3.8c-4.3,2.5-8.3,5.1-12,7.4
		c-14.8,9.3-24.5,15.7-24.5,15.7c-1.1,0.7-2.6,0.4-3.3-0.7c-0.7-1.1-0.4-2.6,0.6-3.3c0,0,2.4-1.7,6.6-4.6c4.2-2.9,10.2-7,17.6-11.8
		c3.7-2.4,7.7-4.9,12-7.6c2.2-1.3,4.4-2.6,6.7-4c2.3-1.3,4.7-2.6,7.3-3.9c5.1-2.4,10.6-4.4,16.4-5.8c5.8-1.4,11.8-2.3,18.2-1.9
		c1.6,0.1,3.2,0.3,4.9,0.8c0.8,0.2,1.7,0.6,2.5,0.9c0.8,0.3,2.3,1.4,2.8,2l0.7,0.8c-0.2-0.3,0.4,0.5,0.3,0.4v0.1l0.1,0.2l0.2,0.3
		l0.3,0.7c0.4,0.9,0.7,2,0.7,3.2c0.1,2.4-1,4.4-2,5.8c-2.2,2.8-4.6,4.6-6.9,6.3s-4.7,3.3-7,4.8c-9.2,6-17.9,11.3-25.3,16
		c-14.9,9.2-24.8,15.3-24.8,15.3c-1.1,0.7-2.6,0.4-3.3-0.8C378.5,242.2,378.8,240.7,379.9,240z"/>
	<path id="XMLID_13_" class="st0" d="M432.9,187.5c0,0,1.9-1.4,4.8-3.9c1.3-1.2,3.1-3,3.5-4.5c0.1-0.6,0-1.2-0.6-1.9
		c-0.6-0.8-0.8-0.8-1.2-1.1c-0.6-0.3-1-0.7-1.7-0.9c-2.6-1.1-6.1-1.6-9.8-1.5c-3.7,0.1-7.7,0.8-11.7,1.8s-8.1,2.5-12.2,4.2
		c-2,0.9-4.1,1.8-6.1,2.8s-4,2-6,3.1c-7.9,4.4-15.8,9.3-23.2,13.8c-7.3,4.6-14.2,8.9-20,12.5c-11.7,7.4-19.6,12.3-19.6,12.3
		c-1.1,0.7-2.6,0.4-3.3-0.8c-0.7-1.1-0.4-2.5,0.7-3.3c0,0,7.6-5.2,19.2-12.8c5.8-3.7,12.7-8.1,20-12.8c7.4-4.6,15.1-9.5,23.4-14.2
		c4-2.2,8.4-4.3,12.7-6.1c4.3-1.7,8.7-3.3,13.1-4.3c4.4-1.1,8.7-1.8,13-1.8c4.2-0.1,8.4,0.4,12.1,2.1c0.9,0.4,1.8,1,2.7,1.5
		c0.9,0.7,2,1.7,2.3,2.3l0.3,0.5l0.2,0.3l0,0v0.1l0.1,0.2l0.2,0.4c0.3,0.5,0.4,1.1,0.6,1.6c0.2,1.2,0.2,2.4-0.1,3.4
		c-1.4,4-3.7,5.4-5.2,6.9c-3.3,2.7-5.2,4-5.2,4l-0.2,0.1c-1.1,0.7-2.6,0.4-3.3-0.7C431.6,189.7,431.9,188.2,432.9,187.5z"/>
	<path id="XMLID_12_" class="st0" d="M405.7,172.4c0,0,0-0.1,0.1-0.3c0-0.1,0.1-0.3,0.1-0.5c0-0.4-0.1-1.1-0.7-1.6
		c-0.8-0.8-0.9-0.6-1.5-0.8c-0.7-0.2-1.6-0.4-2.6-0.5c-2-0.1-4.5,0.1-7.2,0.6c-5.4,1-11.7,3.1-18.1,6.1c-3.2,1.5-6.4,3.2-9.7,5.1
		c-3.2,1.8-6.4,4-9.6,6.1c-13.1,8.3-26.1,16.6-35.9,22.9c-9.9,6.1-16.4,10.2-16.4,10.2c-1.1,0.7-2.6,0.4-3.3-0.8
		c-0.7-1.1-0.4-2.6,0.7-3.3l0,0c0,0,6.4-4.3,16.1-10.8c9.7-6.4,22.7-14.9,35.6-23.3c3.2-2.1,6.5-4.2,9.9-6.1
		c3.4-1.9,6.8-3.7,10.2-5.2c6.8-3.1,13.5-5.2,19.5-6.3c3-0.5,5.9-0.7,8.6-0.5c1.4,0.2,2.6,0.4,3.9,0.9c1.3,0.4,2.9,1.6,3.2,2.1
		c1.9,1.9,2.2,4.1,2,5.5c-0.1,0.7-0.2,1.1-0.3,1.5c-0.1,0.2-0.1,0.4-0.1,0.4c-0.4,1.3-1.8,2-3,1.6
		C406.1,175,405.4,173.7,405.7,172.4L405.7,172.4z"/>
</g>
</svg>
